<svg width="24" height="24" viewBox="0 0 24 24" fill="none" xmlns="http://www.w3.org/2000/svg">
<path d="M11.4639 2.78215L8.77252 5.47358C8.47962 5.76647 8.47962 6.24134 8.77252 6.53424L11.462 9.22367C11.7548 9.51657 12.2297 9.51657 12.5226 9.22367L15.214 6.53225C15.5069 6.23935 15.5069 5.76448 15.214 5.47159L12.5246 2.78215C12.2317 2.48926 11.7568 2.48926 11.4639 2.78215Z" stroke="#E04800" stroke-width="2" stroke-linecap="round" stroke-linejoin="round"/>
<path d="M17.4678 8.7841L14.7764 11.4755C14.4835 11.7684 14.4835 12.2433 14.7764 12.5362L17.4659 15.2256C17.7588 15.5185 18.2336 15.5185 18.5265 15.2256L21.2179 12.5342C21.5108 12.2413 21.5108 11.7664 21.2179 11.4735L18.5285 8.7841C18.2356 8.49121 17.7607 8.49121 17.4678 8.7841Z" stroke="#E04800" stroke-width="2" stroke-linecap="round" stroke-linejoin="round"/>
<path d="M5.46785 8.77434L2.77642 11.4658C2.48353 11.7587 2.48353 12.2335 2.77642 12.5264L5.46586 15.2159C5.75875 15.5088 6.23363 15.5088 6.52652 15.2159L9.21795 12.5244C9.51084 12.2315 9.51084 11.7567 9.21795 11.4638L6.52851 8.77434C6.23562 8.48145 5.76074 8.48145 5.46785 8.77434Z" stroke="#E04800" stroke-width="2" stroke-linecap="round" stroke-linejoin="round"/>
<path d="M11.4678 14.7743L8.77642 17.4658C8.48353 17.7587 8.48353 18.2335 8.77642 18.5264L11.4659 21.2159C11.7588 21.5088 12.2336 21.5088 12.5265 21.2159L15.2179 18.5244C15.5108 18.2315 15.5108 17.7567 15.2179 17.4638L12.5285 14.7743C12.2356 14.4814 11.7607 14.4814 11.4678 14.7743Z" stroke="#E04800" stroke-width="2" stroke-linecap="round" stroke-linejoin="round"/>
</svg>
