<svg width="24" height="25" viewBox="0 0 24 25" fill="none" xmlns="http://www.w3.org/2000/svg">
<path d="M12 17.3828C14.4853 17.3828 16.5 15.3681 16.5 12.8828C16.5 10.3975 14.4853 8.38281 12 8.38281C9.51472 8.38281 7.5 10.3975 7.5 12.8828C7.5 15.3681 9.51472 17.3828 12 17.3828Z" stroke="#8E8B8A" stroke-width="2" stroke-linecap="round" stroke-linejoin="round"/>
<path d="M17.2203 6.98438C17.4578 7.20312 17.6828 7.42813 17.8953 7.65938L20.4547 8.025C20.8717 8.74922 21.1931 9.52443 21.4109 10.3313L19.8547 12.4031C19.8547 12.4031 19.8828 13.0406 19.8547 13.3594L21.4109 15.4312C21.1941 16.2384 20.8727 17.0137 20.4547 17.7375L17.8953 18.1031C17.8953 18.1031 17.4547 18.5625 17.2203 18.7781L16.8547 21.3375C16.1305 21.7545 15.3553 22.0759 14.5484 22.2937L12.4766 20.7375C12.1584 20.7656 11.8384 20.7656 11.5203 20.7375L9.44844 22.2937C8.64127 22.077 7.86594 21.7555 7.14219 21.3375L6.77656 18.7781C6.54531 18.5594 6.32031 18.3344 6.10156 18.1031L3.54219 17.7375C3.12517 17.0133 2.80375 16.2381 2.58594 15.4312L4.14219 13.3594C4.14219 13.3594 4.11406 12.7219 4.14219 12.4031L2.58594 10.3313C2.80274 9.52408 3.12421 8.74875 3.54219 8.025L6.10156 7.65938C6.32031 7.42813 6.54531 7.20312 6.77656 6.98438L7.14219 4.425C7.86641 4.00798 8.64161 3.68656 9.44844 3.46875L11.5203 5.025C11.8384 4.99687 12.1584 4.99687 12.4766 5.025L14.5484 3.46875C15.3556 3.68555 16.1309 4.00703 16.8547 4.425L17.2203 6.98438Z" stroke="#8E8B8A" stroke-width="2" stroke-linecap="round" stroke-linejoin="round"/>
</svg>
