<svg width="24" height="24" viewBox="0 0 24 24" fill="none" xmlns="http://www.w3.org/2000/svg">
<path d="M19.572 6.75H4.42195C4.2374 6.75087 4.05949 6.81891 3.92146 6.94141C3.78343 7.06391 3.69473 7.23249 3.67195 7.41562L2.3407 19.4156C2.32886 19.5202 2.33915 19.6261 2.37091 19.7264C2.40267 19.8267 2.45518 19.9192 2.52503 19.9979C2.59488 20.0766 2.68051 20.1397 2.77635 20.1831C2.8722 20.2266 2.9761 20.2494 3.08133 20.25H20.9126C21.0178 20.2494 21.1217 20.2266 21.2175 20.1831C21.3134 20.1397 21.399 20.0766 21.4689 19.9979C21.5387 19.9192 21.5912 19.8267 21.623 19.7264C21.6547 19.6261 21.665 19.5202 21.6532 19.4156L20.322 7.41562C20.2992 7.23249 20.2105 7.06391 20.0724 6.94141C19.9344 6.81891 19.7565 6.75087 19.572 6.75V6.75Z" stroke="#8E8B8A" stroke-width="2" stroke-linecap="round" stroke-linejoin="round"/>
<path d="M8.25 9.75V6.75C8.25 5.75544 8.64509 4.80161 9.34835 4.09835C10.0516 3.39509 11.0054 3 12 3C12.9946 3 13.9484 3.39509 14.6517 4.09835C15.3549 4.80161 15.75 5.75544 15.75 6.75V9.75" stroke="#8E8B8A" stroke-width="2" stroke-linecap="round" stroke-linejoin="round"/>
</svg>
