<svg xmlns="http://www.w3.org/2000/svg" viewBox="0 0 14.69 17.22"><defs><style>.cls-1{fill:#5c5f60;fill-rule:evenodd;}.cls-2{fill:none;stroke:#5c5f60;stroke-width:1.2px;}</style></defs><title>Asset 1</title><g id="Layer_2" data-name="Layer 2"><g id="Layer_1-2" data-name="Layer 1"><path class="cls-1" d="M7.35,1.2a6,6,0,0,0-6.15,6,5,5,0,0,0,.57,2,17,17,0,0,0,1.48,2.43,40.61,40.61,0,0,0,3.52,4.16.79.79,0,0,0,1.15,0,39.38,39.38,0,0,0,3.52-4.16,16.16,16.16,0,0,0,1.48-2.43,5,5,0,0,0,.57-2A6,6,0,0,0,7.35,1.2ZM0,7.15A7.26,7.26,0,0,1,7.35,0a7.25,7.25,0,0,1,7.34,7.15A6.14,6.14,0,0,1,14,9.7a16.44,16.44,0,0,1-1.59,2.61A40.32,40.32,0,0,1,8.78,16.6a2,2,0,0,1-2.87,0,40.32,40.32,0,0,1-3.63-4.29A17.21,17.21,0,0,1,.69,9.7,6.14,6.14,0,0,1,0,7.15ZM7.35,4.78A1.87,1.87,0,0,0,5.44,6.61,1.87,1.87,0,0,0,7.35,8.43,1.87,1.87,0,0,0,9.26,6.61,1.87,1.87,0,0,0,7.35,4.78ZM3.64,6.61A3.67,3.67,0,0,1,7.35,3a3.67,3.67,0,0,1,3.71,3.63,3.67,3.67,0,0,1-3.71,3.62A3.66,3.66,0,0,1,3.64,6.61Z"/><ellipse class="cls-2" cx="7.35" cy="6.61" rx="2.81" ry="2.73"/></g></g></svg>