<svg width="24" height="25" viewBox="0 0 24 25" fill="white" xmlns="http://www.w3.org/2000/svg">
<path d="M5.27001 10.6915C5.26876 9.80237 5.44344 8.92176 5.78398 8.10041C6.12451 7.27906 6.62418 6.5332 7.25421 5.90579C7.88424 5.27838 8.63217 4.78181 9.45493 4.44469C10.2777 4.10757 11.159 3.93656 12.0481 3.94151C15.7606 3.96964 18.7325 7.05401 18.7325 10.7759V11.4415C18.7325 14.7978 19.4356 16.7478 20.0544 17.8165C20.1201 17.9303 20.1548 18.0594 20.1549 18.1909C20.155 18.3223 20.1206 18.4514 20.0551 18.5654C19.9895 18.6793 19.8952 18.774 19.7816 18.84C19.6679 18.9061 19.5389 18.941 19.4075 18.9415H4.59501C4.46359 18.941 4.33459 18.9061 4.22094 18.84C4.10729 18.774 4.01299 18.6793 3.94748 18.5654C3.88196 18.4514 3.84754 18.3223 3.84766 18.1909C3.84777 18.0594 3.88242 17.9303 3.94814 17.8165C4.56689 16.7478 5.27001 14.7978 5.27001 11.4415V10.6915Z" stroke="#8e8b8a" stroke-width="2" stroke-linecap="round" stroke-linejoin="round"/>
<path d="M9 18.9414V19.6914C9 20.4871 9.31607 21.2501 9.87868 21.8127C10.4413 22.3753 11.2044 22.6914 12 22.6914C12.7956 22.6914 13.5587 22.3753 14.1213 21.8127C14.6839 21.2501 15 20.4871 15 19.6914V18.9414" stroke="#8e8b8a" stroke-width="2" stroke-linecap="round" stroke-linejoin="round"/>
</svg>
