<svg width="160" height="160" viewBox="0 0 160 160" fill="none" xmlns="http://www.w3.org/2000/svg">
<path d="M143.091 95.7002C138.921 112.43 128.277 126.818 113.501 135.702C98.7248 144.586 81.0253 147.239 64.2939 143.076C29.4846 134.387 8.26699 99.1268 16.9406 64.3251C25.6143 29.5158 60.8443 8.25995 95.6308 16.9413C130.524 25.5078 151.749 60.8756 143.091 95.7079V95.7002Z" stroke="#B3B1B0" stroke-width="4"/>
<path d="M60.1382 102.281L73.0875 50.3304M61.951 47.5539L93.9303 55.5315C114.796 60.7326 110.146 85.1856 87.9184 79.6479C112.272 85.721 109.794 114.664 80.981 107.482C66.8997 103.963 51.8164 100.215 51.8164 100.215M67.068 74.4544L87.4824 79.5408M76.7971 51.2559L79.5736 40.127M61.0637 114.343L63.8402 103.206M91.6357 54.9578L94.4122 43.8289M75.9099 118.045L78.6864 106.908" stroke="#B3B1B0" stroke-width="4" stroke-linecap="square" stroke-linejoin="round"/>
</svg>
