<svg width="44" height="38" viewBox="0 0 44 38" fill="none" xmlns="http://www.w3.org/2000/svg">
<path fill-rule="evenodd" clip-rule="evenodd" d="M12.5 5.42806C12.5 2.51706 14.9624 0.157227 18 0.157227H26C29.0376 0.157227 31.5 2.51706 31.5 5.42806V7.34473C31.5 8.13864 30.8284 8.78223 30 8.78223H14C13.1716 8.78223 12.5 8.13864 12.5 7.34473V5.42806ZM18 3.03223C16.6193 3.03223 15.5 4.10488 15.5 5.42806V5.90723H28.5V5.42806C28.5 4.10488 27.3807 3.03223 26 3.03223H18Z" fill="#ECECEC" fill-opacity="0.88"/>
<path fill-rule="evenodd" clip-rule="evenodd" d="M6 5.90723C2.96243 5.90723 0.5 8.26706 0.5 11.1781V32.2614C0.5 35.1724 2.96243 37.5322 6 37.5322H22H38C41.0376 37.5322 43.5 35.1724 43.5 32.2614V11.1781C43.5 8.26706 41.0376 5.90723 38 5.90723H6Z" fill="#ECECEC" fill-opacity="0.88"/>
<path fill-rule="evenodd" clip-rule="evenodd" d="M6 5.90723C2.96244 5.90723 0.5 8.26706 0.5 11.1781V16.9281C0.5 17.5629 0.934502 18.1225 1.56898 18.3049L21.569 24.0549C21.8501 24.1358 22.1499 24.1358 22.431 24.0549L42.431 18.3049C43.0655 18.1225 43.5 17.5629 43.5 16.9281V11.1781C43.5 8.26706 41.0376 5.90723 38 5.90723H6Z" fill="#E04800"/>
<path fill-rule="evenodd" clip-rule="evenodd" d="M22 17.4072C22.8284 17.4072 23.5 18.0508 23.5 18.8447V26.5114C23.5 27.3053 22.8284 27.9489 22 27.9489C21.1716 27.9489 20.5 27.3053 20.5 26.5114V18.8447C20.5 18.0508 21.1716 17.4072 22 17.4072Z" fill="#EA8454"/>
</svg>
