<svg width="63" height="63" viewBox="0 0 63 63" fill="none" xmlns="http://www.w3.org/2000/svg">
<g clip-path="url(#clip0_2412_4133)">
<rect x="0.910156" y="0.639145" width="61.5902" height="61.5902" rx="6.48318" fill="url(#paint0_linear_2412_4133)"/>
<circle opacity="0.4" cx="62.7714" cy="6.99126" r="17.9003" fill="#F5C6B0"/>
<g opacity="0.56" filter="url(#filter0_d_2412_4133)">
<circle cx="62.7721" cy="6.99124" r="13.3346" fill="#F5C6B0"/>
</g>
<circle cx="62.7719" cy="6.99127" r="9.13131" fill="#FCEDE6"/>
<circle opacity="0.4" cx="-3.06848" cy="60.4775" r="17.9003" fill="#F5C6B0"/>
<g opacity="0.56" filter="url(#filter1_d_2412_4133)">
<circle cx="-3.06773" cy="60.4774" r="13.3346" fill="#F5C6B0"/>
</g>
<circle cx="-3.06791" cy="60.4775" r="9.13131" fill="#FCEDE6"/>
<path d="M22.7426 33.4841C22.7426 34.0892 22.5805 34.6456 22.2563 35.1535C21.9322 35.6613 21.4513 36.0665 20.8138 36.3691C20.1763 36.6716 19.4091 36.8229 18.5123 36.8229V38.1195H17.8153V36.7905C16.6376 36.6932 15.6759 36.3367 14.9303 35.7208C14.1956 35.1049 13.7904 34.2837 13.7147 33.2572H16.6646C16.697 33.6029 16.8104 33.8947 17.0049 34.1324C17.2102 34.3701 17.4804 34.5322 17.8153 34.6186V32.0416C17.6316 31.9875 17.5128 31.9497 17.4588 31.9281C16.67 31.7012 16.0217 31.4743 15.5138 31.2474C15.0168 31.0097 14.5846 30.6639 14.2172 30.2101C13.8606 29.7454 13.6823 29.1349 13.6823 28.3786C13.6823 27.7194 13.8606 27.1414 14.2172 26.6443C14.5846 26.1473 15.0816 25.7691 15.7083 25.5098C16.335 25.2396 17.0374 25.0938 17.8153 25.0721V23.7431H18.5123V25.0884C19.7009 25.164 20.6463 25.5044 21.3487 26.1095C22.051 26.7037 22.4454 27.4925 22.5319 28.4758H19.5334C19.4902 28.1517 19.3821 27.8869 19.2092 27.6816C19.0363 27.4763 18.804 27.3359 18.5123 27.2602V29.7887L19.0147 29.9507C19.8035 30.1993 20.441 30.4424 20.9273 30.6801C21.4243 30.907 21.8511 31.2474 22.2077 31.7012C22.5643 32.155 22.7426 32.7493 22.7426 33.4841ZM16.6484 28.2651C16.6484 28.5569 16.7456 28.8054 16.9401 29.0107C17.1454 29.2052 17.4372 29.3835 17.8153 29.5455V27.1954C17.448 27.217 17.1616 27.3196 16.9563 27.5033C16.751 27.687 16.6484 27.941 16.6484 28.2651ZM18.5123 34.6997C18.9013 34.6889 19.2092 34.5808 19.4361 34.3755C19.663 34.1594 19.7765 33.8839 19.7765 33.5489C19.7765 33.2464 19.6684 32.9978 19.4523 32.8033C19.2362 32.598 18.9229 32.4198 18.5123 32.2685V34.6997ZM32.4643 27.4061H27.3102V29.7238C27.5371 29.4645 27.8504 29.2646 28.2502 29.1241C28.6608 28.9729 29.1038 28.8972 29.5793 28.8972C30.3464 28.8972 30.9894 29.0701 31.508 29.4159C32.0267 29.7508 32.4103 30.2047 32.6588 30.7773C32.9073 31.35 33.0316 31.9821 33.0316 32.6737C33.0316 33.9271 32.6804 34.9212 31.978 35.6559C31.2757 36.3799 30.287 36.7419 29.012 36.7419C28.1476 36.7419 27.3966 36.5906 26.7591 36.2881C26.1216 35.9747 25.6299 35.5425 25.2842 34.9914C24.9384 34.4403 24.7547 33.8028 24.7331 33.0789H27.4398C27.4938 33.4463 27.6397 33.7488 27.8774 33.9865C28.126 34.2242 28.4609 34.3431 28.8823 34.3431C29.3686 34.3431 29.7305 34.1864 29.9683 33.8731C30.2168 33.5597 30.341 33.1437 30.341 32.6251C30.341 32.128 30.2114 31.7444 29.9521 31.4743C29.6927 31.2042 29.3307 31.0691 28.8661 31.0691C28.5095 31.0691 28.2124 31.1501 27.9747 31.3122C27.737 31.4635 27.5749 31.6634 27.4884 31.9119H24.7979V24.9749H32.4643V27.4061ZM34.451 34.6024V32.2847L39.6862 25.1046H42.6685V32.1874H44.0461V34.6024H42.6685V36.7095H39.8645V34.6024H34.451ZM40.0914 28.3137L37.2712 32.1874H40.0914V28.3137ZM45.3083 30.8584C45.3083 32.6521 45.6703 34.073 46.3943 35.1211C47.1182 36.1692 48.2744 36.6932 49.8628 36.6932C51.4403 36.6932 52.5911 36.1692 53.3151 35.1211C54.0498 34.073 54.4172 32.6521 54.4172 30.8584C54.4172 29.0755 54.0498 27.6654 53.3151 26.6281C52.5911 25.58 51.4403 25.0559 49.8628 25.0559C48.2744 25.0559 47.1182 25.58 46.3943 26.6281C45.6703 27.6654 45.3083 29.0755 45.3083 30.8584ZM51.6618 30.8584C51.6618 31.8849 51.5376 32.6791 51.2891 33.241C51.0513 33.792 50.5759 34.0676 49.8628 34.0676C49.1388 34.0676 48.6526 33.792 48.404 33.241C48.1555 32.6791 48.0313 31.8849 48.0313 30.8584C48.0313 29.8427 48.1555 29.0593 48.404 28.5082C48.6526 27.9572 49.1388 27.6816 49.8628 27.6816C50.5759 27.6816 51.0513 27.9572 51.2891 28.5082C51.5376 29.0485 51.6618 29.8319 51.6618 30.8584Z" fill="white"/>
</g>
<defs>
<filter id="filter0_d_2412_4133" x="44.3149" y="-10.6321" width="36.9132" height="36.9144" filterUnits="userSpaceOnUse" color-interpolation-filters="sRGB">
<feFlood flood-opacity="0" result="BackgroundImageFix"/>
<feColorMatrix in="SourceAlpha" type="matrix" values="0 0 0 0 0 0 0 0 0 0 0 0 0 0 0 0 0 0 127 0" result="hardAlpha"/>
<feMorphology radius="0.11913" operator="erode" in="SourceAlpha" result="effect1_dropShadow_2412_4133"/>
<feOffset dy="0.83391"/>
<feGaussianBlur stdDeviation="2.62086"/>
<feComposite in2="hardAlpha" operator="out"/>
<feColorMatrix type="matrix" values="0 0 0 0 0 0 0 0 0 0 0 0 0 0 0 0 0 0 0.08 0"/>
<feBlend mode="normal" in2="BackgroundImageFix" result="effect1_dropShadow_2412_4133"/>
<feBlend mode="normal" in="SourceGraphic" in2="effect1_dropShadow_2412_4133" result="shape"/>
</filter>
<filter id="filter1_d_2412_4133" x="-21.5249" y="42.8541" width="36.9132" height="36.9144" filterUnits="userSpaceOnUse" color-interpolation-filters="sRGB">
<feFlood flood-opacity="0" result="BackgroundImageFix"/>
<feColorMatrix in="SourceAlpha" type="matrix" values="0 0 0 0 0 0 0 0 0 0 0 0 0 0 0 0 0 0 127 0" result="hardAlpha"/>
<feMorphology radius="0.11913" operator="erode" in="SourceAlpha" result="effect1_dropShadow_2412_4133"/>
<feOffset dy="0.83391"/>
<feGaussianBlur stdDeviation="2.62086"/>
<feComposite in2="hardAlpha" operator="out"/>
<feColorMatrix type="matrix" values="0 0 0 0 0 0 0 0 0 0 0 0 0 0 0 0 0 0 0.08 0"/>
<feBlend mode="normal" in2="BackgroundImageFix" result="effect1_dropShadow_2412_4133"/>
<feBlend mode="normal" in="SourceGraphic" in2="effect1_dropShadow_2412_4133" result="shape"/>
</filter>
<linearGradient id="paint0_linear_2412_4133" x1="4.32551" y1="62.2294" x2="62.4609" y2="7.98682" gradientUnits="userSpaceOnUse">
<stop stop-color="#E66D33"/>
<stop offset="0.971875" stop-color="#F5C6B0"/>
</linearGradient>
<clipPath id="clip0_2412_4133">
<rect x="0.910156" y="0.639145" width="61.5902" height="61.5902" rx="6.48318" fill="white"/>
</clipPath>
</defs>
</svg>
