<svg width="63" height="63" viewBox="0 0 63 63" fill="none" xmlns="http://www.w3.org/2000/svg">
<g clip-path="url(#clip0_2412_9936)">
<rect x="0.910156" y="0.63916" width="61.5902" height="61.5902" rx="6.48318" fill="url(#paint0_linear_2412_9936)"/>
<circle opacity="0.4" cx="62.7714" cy="6.99127" r="17.9003" fill="#F5C6B0"/>
<g opacity="0.56" filter="url(#filter0_d_2412_9936)">
<circle cx="62.7721" cy="6.99129" r="13.3346" fill="#F5C6B0"/>
</g>
<circle cx="62.7719" cy="6.9913" r="9.13131" fill="#FCEDE6"/>
<circle opacity="0.4" cx="-3.06848" cy="60.4774" r="17.9003" fill="#F5C6B0"/>
<g opacity="0.56" filter="url(#filter1_d_2412_9936)">
<circle cx="-3.06773" cy="60.4774" r="13.3346" fill="#F5C6B0"/>
</g>
<circle cx="-3.06791" cy="60.4774" r="9.13131" fill="#FCEDE6"/>
<path d="M29.8324 33.484C29.8324 34.0891 29.6703 34.6456 29.3462 35.1534C29.022 35.6613 28.5412 36.0665 27.9037 36.369C27.2661 36.6716 26.499 36.8229 25.6021 36.8229V38.1195H24.9052V36.7905C23.7274 36.6932 22.7657 36.3366 22.0202 35.7207C21.2854 35.1048 20.8802 34.2836 20.8046 33.2571H23.7544C23.7868 33.6029 23.9003 33.8946 24.0948 34.1323C24.3001 34.3701 24.5702 34.5321 24.9052 34.6186V32.0415C24.7215 31.9875 24.6026 31.9497 24.5486 31.9281C23.7598 31.7012 23.1115 31.4742 22.6037 31.2473C22.1066 31.0096 21.6744 30.6638 21.307 30.21C20.9504 29.7454 20.7722 29.1349 20.7722 28.3785C20.7722 27.7194 20.9504 27.1413 21.307 26.6443C21.6744 26.1472 22.1714 25.769 22.7981 25.5097C23.4249 25.2396 24.1272 25.0937 24.9052 25.0721V23.743H25.6021V25.0883C26.7907 25.1639 27.7362 25.5043 28.4385 26.1094C29.1409 26.7037 29.5353 27.4925 29.6217 28.4758H26.6232C26.58 28.1516 26.4719 27.8869 26.2991 27.6816C26.1262 27.4763 25.8939 27.3358 25.6021 27.2602V29.7886L26.1046 29.9507C26.8934 30.1992 27.5309 30.4423 28.0171 30.6801C28.5142 30.907 28.941 31.2473 29.2975 31.7012C29.6541 32.155 29.8324 32.7493 29.8324 33.484ZM23.7382 28.2651C23.7382 28.5568 23.8355 28.8053 24.03 29.0106C24.2353 29.2051 24.527 29.3834 24.9052 29.5455V27.1953C24.5378 27.217 24.2515 27.3196 24.0462 27.5033C23.8409 27.687 23.7382 27.9409 23.7382 28.2651ZM25.6021 34.6996C25.9911 34.6888 26.2991 34.5808 26.526 34.3755C26.7529 34.1594 26.8663 33.8838 26.8663 33.5489C26.8663 33.2463 26.7583 32.9978 26.5422 32.8033C26.3261 32.598 26.0127 32.4197 25.6021 32.2684V34.6996ZM31.4988 27.8275C31.4988 27.2764 31.6555 26.7577 31.9688 26.2715C32.2822 25.7853 32.7468 25.3909 33.3627 25.0883C33.9894 24.7858 34.7458 24.6345 35.6318 24.6345C36.5286 24.6345 37.285 24.7858 37.9009 25.0883C38.5276 25.3909 38.9923 25.7853 39.2948 26.2715C39.6082 26.7577 39.7648 27.2764 39.7648 27.8275C39.7648 28.4326 39.6244 28.9512 39.3434 29.3834C39.0625 29.8048 38.6519 30.129 38.1116 30.3559C39.3975 30.9286 40.0404 31.8956 40.0404 33.2571C40.0404 34.0351 39.8459 34.705 39.4569 35.2669C39.0679 35.818 38.5384 36.2394 37.8685 36.5311C37.2094 36.8121 36.4638 36.9525 35.6318 36.9525C34.8106 36.9525 34.065 36.8121 33.3951 36.5311C32.7252 36.2394 32.1957 35.818 31.8067 35.2669C31.4177 34.705 31.2232 34.0351 31.2232 33.2571C31.2232 31.8956 31.8662 30.9286 33.152 30.3559C32.6117 30.129 32.2011 29.8048 31.9202 29.3834C31.6392 28.9512 31.4988 28.4326 31.4988 27.8275ZM34.2217 28.2975C34.2217 28.7405 34.346 29.0809 34.5945 29.3186C34.8538 29.5455 35.1996 29.659 35.6318 29.659C36.064 29.659 36.4044 29.5455 36.6529 29.3186C36.9122 29.0809 37.0419 28.7405 37.0419 28.2975C37.0419 27.8653 36.9122 27.5249 36.6529 27.2764C36.3936 27.0279 36.0532 26.9036 35.6318 26.9036C35.2104 26.9036 34.87 27.0279 34.6107 27.2764C34.3514 27.5249 34.2217 27.8653 34.2217 28.2975ZM33.9138 33.095C33.9138 33.5813 34.065 33.9649 34.3676 34.2458C34.6809 34.5267 35.1023 34.6672 35.6318 34.6672C36.1613 34.6672 36.5773 34.5267 36.8798 34.2458C37.1932 33.9649 37.3498 33.5813 37.3498 33.095C37.3498 32.6088 37.1878 32.2306 36.8636 31.9605C36.5503 31.6795 36.1397 31.5391 35.6318 31.5391C35.124 31.5391 34.708 31.6795 34.3838 31.9605C34.0704 32.2306 33.9138 32.6088 33.9138 33.095ZM44.3927 33.1923C44.544 34.1323 45.0194 34.6024 45.819 34.6024C46.4457 34.6024 46.8833 34.316 47.1319 33.7434C47.3912 33.1707 47.51 32.2792 47.4884 31.069C47.3047 31.5121 46.986 31.8632 46.5322 32.1226C46.0891 32.3711 45.5705 32.4953 44.9762 32.4953C43.8957 32.4953 43.042 32.1712 42.4153 31.5229C41.7886 30.8637 41.4753 29.9237 41.4753 28.7027C41.4753 27.9355 41.632 27.2548 41.9453 26.6605C42.2587 26.0662 42.7179 25.607 43.323 25.2828C43.9389 24.9478 44.6736 24.7804 45.5273 24.7804C46.6834 24.7804 47.5857 25.0235 48.234 25.5097C48.8823 25.996 49.3307 26.6605 49.5793 27.5033C49.8278 28.3353 49.952 29.3402 49.952 30.518C49.952 32.5926 49.6333 34.1648 48.9958 35.2345C48.3691 36.2934 47.3101 36.8229 45.819 36.8229C44.9978 36.8229 44.2901 36.6608 43.6958 36.3366C43.1123 36.0017 42.6585 35.5586 42.3343 35.0076C42.0209 34.4565 41.8427 33.8514 41.7994 33.1923H44.3927ZM47.2777 28.8323C47.2777 28.3353 47.1373 27.9355 46.8563 27.633C46.5754 27.3196 46.1648 27.1629 45.6245 27.1629C45.1383 27.1629 44.7547 27.298 44.4738 27.5681C44.2036 27.8383 44.0686 28.2327 44.0686 28.7513C44.0686 29.27 44.209 29.6698 44.49 29.9507C44.7709 30.2208 45.1545 30.3559 45.6407 30.3559C46.1054 30.3559 46.4943 30.2262 46.8077 29.9669C47.121 29.6968 47.2777 29.3186 47.2777 28.8323Z" fill="white"/>
</g>
<defs>
<filter id="filter0_d_2412_9936" x="44.3149" y="-10.632" width="36.9132" height="36.9144" filterUnits="userSpaceOnUse" color-interpolation-filters="sRGB">
<feFlood flood-opacity="0" result="BackgroundImageFix"/>
<feColorMatrix in="SourceAlpha" type="matrix" values="0 0 0 0 0 0 0 0 0 0 0 0 0 0 0 0 0 0 127 0" result="hardAlpha"/>
<feMorphology radius="0.11913" operator="erode" in="SourceAlpha" result="effect1_dropShadow_2412_9936"/>
<feOffset dy="0.83391"/>
<feGaussianBlur stdDeviation="2.62086"/>
<feComposite in2="hardAlpha" operator="out"/>
<feColorMatrix type="matrix" values="0 0 0 0 0 0 0 0 0 0 0 0 0 0 0 0 0 0 0.08 0"/>
<feBlend mode="normal" in2="BackgroundImageFix" result="effect1_dropShadow_2412_9936"/>
<feBlend mode="normal" in="SourceGraphic" in2="effect1_dropShadow_2412_9936" result="shape"/>
</filter>
<filter id="filter1_d_2412_9936" x="-21.5249" y="42.8541" width="36.9132" height="36.9144" filterUnits="userSpaceOnUse" color-interpolation-filters="sRGB">
<feFlood flood-opacity="0" result="BackgroundImageFix"/>
<feColorMatrix in="SourceAlpha" type="matrix" values="0 0 0 0 0 0 0 0 0 0 0 0 0 0 0 0 0 0 127 0" result="hardAlpha"/>
<feMorphology radius="0.11913" operator="erode" in="SourceAlpha" result="effect1_dropShadow_2412_9936"/>
<feOffset dy="0.83391"/>
<feGaussianBlur stdDeviation="2.62086"/>
<feComposite in2="hardAlpha" operator="out"/>
<feColorMatrix type="matrix" values="0 0 0 0 0 0 0 0 0 0 0 0 0 0 0 0 0 0 0.08 0"/>
<feBlend mode="normal" in2="BackgroundImageFix" result="effect1_dropShadow_2412_9936"/>
<feBlend mode="normal" in="SourceGraphic" in2="effect1_dropShadow_2412_9936" result="shape"/>
</filter>
<linearGradient id="paint0_linear_2412_9936" x1="4.32551" y1="62.2294" x2="62.4609" y2="7.98684" gradientUnits="userSpaceOnUse">
<stop stop-color="#E66D33"/>
<stop offset="0.971875" stop-color="#F5C6B0"/>
</linearGradient>
<clipPath id="clip0_2412_9936">
<rect x="0.910156" y="0.63916" width="61.5902" height="61.5902" rx="6.48318" fill="white"/>
</clipPath>
</defs>
</svg>
