<svg width="62" height="63" viewBox="0 0 62 63" fill="none" xmlns="http://www.w3.org/2000/svg">
<g clip-path="url(#clip0_2412_9350)">
<rect x="0.0546875" y="0.63916" width="61.5902" height="61.5902" rx="6.48318" fill="url(#paint0_linear_2412_9350)"/>
<circle opacity="0.4" cx="61.9159" cy="6.99127" r="17.9003" fill="#F5C6B0"/>
<g opacity="0.56" filter="url(#filter0_d_2412_9350)">
<circle cx="61.9166" cy="6.99129" r="13.3346" fill="#F5C6B0"/>
</g>
<circle cx="61.9165" cy="6.9913" r="9.13131" fill="#FCEDE6"/>
<circle opacity="0.4" cx="-3.92395" cy="60.4774" r="17.9003" fill="#F5C6B0"/>
<g opacity="0.56" filter="url(#filter1_d_2412_9350)">
<circle cx="-3.9232" cy="60.4774" r="13.3346" fill="#F5C6B0"/>
</g>
<circle cx="-3.92338" cy="60.4774" r="9.13131" fill="#FCEDE6"/>
<path d="M25.1293 33.484C25.1293 34.0891 24.9672 34.6456 24.643 35.1534C24.3189 35.6613 23.838 36.0665 23.2005 36.369C22.563 36.6716 21.7958 36.8229 20.899 36.8229V38.1195H20.2021V36.7905C19.0243 36.6932 18.0626 36.3366 17.317 35.7207C16.5823 35.1048 16.1771 34.2836 16.1014 33.2571H19.0513C19.0837 33.6029 19.1972 33.8946 19.3917 34.1323C19.597 34.3701 19.8671 34.5321 20.2021 34.6186V32.0415C20.0184 31.9875 19.8995 31.9497 19.8455 31.9281C19.0567 31.7012 18.4084 31.4742 17.9005 31.2473C17.4035 31.0096 16.9713 30.6638 16.6039 30.21C16.2473 29.7454 16.069 29.1349 16.069 28.3785C16.069 27.7194 16.2473 27.1413 16.6039 26.6443C16.9713 26.1472 17.4683 25.769 18.095 25.5097C18.7217 25.2396 19.4241 25.0937 20.2021 25.0721V23.743H20.899V25.0883C22.0876 25.1639 23.033 25.5043 23.7354 26.1094C24.4377 26.7037 24.8321 27.4925 24.9186 28.4758H21.9201C21.8769 28.1516 21.7688 27.8869 21.5959 27.6816C21.4231 27.4763 21.1907 27.3358 20.899 27.2602V29.7886L21.4014 29.9507C22.1902 30.1992 22.8277 30.4423 23.314 30.6801C23.811 30.907 24.2378 31.2473 24.5944 31.7012C24.951 32.155 25.1293 32.7493 25.1293 33.484ZM19.0351 28.2651C19.0351 28.5568 19.1323 28.8053 19.3268 29.0106C19.5321 29.2051 19.8239 29.3834 20.2021 29.5455V27.1953C19.8347 27.217 19.5483 27.3196 19.343 27.5033C19.1377 27.687 19.0351 27.9409 19.0351 28.2651ZM20.899 34.6996C21.288 34.6888 21.5959 34.5808 21.8229 34.3755C22.0498 34.1594 22.1632 33.8838 22.1632 33.5489C22.1632 33.2463 22.0552 32.9978 21.8391 32.8033C21.623 32.598 21.3096 32.4197 20.899 32.2684V34.6996ZM26.2608 34.5051C29.6969 32.0523 31.4149 30.102 31.4149 28.6541C31.4149 27.768 31.0313 27.325 30.2642 27.325C29.8319 27.325 29.5132 27.4763 29.3079 27.7788C29.1134 28.0814 29.0053 28.5514 28.9837 29.1889H26.277C26.3418 27.795 26.7632 26.7469 27.5412 26.0446C28.3192 25.3422 29.3025 24.9911 30.4911 24.9911C31.7337 24.9911 32.6683 25.3044 33.295 25.9311C33.9326 26.5578 34.2513 27.3736 34.2513 28.3785C34.2513 29.4915 33.8245 30.5828 32.9709 31.6525C32.1173 32.7114 31.0962 33.6083 29.9076 34.3431H34.4296V36.5797H26.2608V34.5051ZM35.5707 30.8583C35.5707 32.652 35.9327 34.0729 36.6567 35.121C37.3806 36.1691 38.5368 36.6932 40.1252 36.6932C41.7027 36.6932 42.8535 36.1691 43.5775 35.121C44.3122 34.0729 44.6796 32.652 44.6796 30.8583C44.6796 29.0755 44.3122 27.6654 43.5775 26.6281C42.8535 25.58 41.7027 25.0559 40.1252 25.0559C38.5368 25.0559 37.3806 25.58 36.6567 26.6281C35.9327 27.6654 35.5707 29.0755 35.5707 30.8583ZM41.9243 30.8583C41.9243 31.8848 41.8 32.679 41.5515 33.2409C41.3138 33.792 40.8383 34.0675 40.1252 34.0675C39.4012 34.0675 38.915 33.792 38.6665 33.2409C38.4179 32.679 38.2937 31.8848 38.2937 30.8583C38.2937 29.8426 38.4179 29.0593 38.6665 28.5082C38.915 27.9571 39.4012 27.6816 40.1252 27.6816C40.8383 27.6816 41.3138 27.9571 41.5515 28.5082C41.8 29.0485 41.9243 29.8318 41.9243 30.8583ZM46.0014 30.8583C46.0014 32.652 46.3634 34.0729 47.0874 35.121C47.8113 36.1691 48.9675 36.6932 50.5559 36.6932C52.1335 36.6932 53.2842 36.1691 54.0082 35.121C54.7429 34.0729 55.1103 32.652 55.1103 30.8583C55.1103 29.0755 54.7429 27.6654 54.0082 26.6281C53.2842 25.58 52.1335 25.0559 50.5559 25.0559C48.9675 25.0559 47.8113 25.58 47.0874 26.6281C46.3634 27.6654 46.0014 29.0755 46.0014 30.8583ZM52.355 30.8583C52.355 31.8848 52.2307 32.679 51.9822 33.2409C51.7445 33.792 51.269 34.0675 50.5559 34.0675C49.8319 34.0675 49.3457 33.792 49.0972 33.2409C48.8486 32.679 48.7244 31.8848 48.7244 30.8583C48.7244 29.8426 48.8486 29.0593 49.0972 28.5082C49.3457 27.9571 49.8319 27.6816 50.5559 27.6816C51.269 27.6816 51.7445 27.9571 51.9822 28.5082C52.2307 29.0485 52.355 29.8318 52.355 30.8583Z" fill="white"/>
</g>
<defs>
<filter id="filter0_d_2412_9350" x="43.4594" y="-10.632" width="36.9132" height="36.9144" filterUnits="userSpaceOnUse" color-interpolation-filters="sRGB">
<feFlood flood-opacity="0" result="BackgroundImageFix"/>
<feColorMatrix in="SourceAlpha" type="matrix" values="0 0 0 0 0 0 0 0 0 0 0 0 0 0 0 0 0 0 127 0" result="hardAlpha"/>
<feMorphology radius="0.11913" operator="erode" in="SourceAlpha" result="effect1_dropShadow_2412_9350"/>
<feOffset dy="0.83391"/>
<feGaussianBlur stdDeviation="2.62086"/>
<feComposite in2="hardAlpha" operator="out"/>
<feColorMatrix type="matrix" values="0 0 0 0 0 0 0 0 0 0 0 0 0 0 0 0 0 0 0.08 0"/>
<feBlend mode="normal" in2="BackgroundImageFix" result="effect1_dropShadow_2412_9350"/>
<feBlend mode="normal" in="SourceGraphic" in2="effect1_dropShadow_2412_9350" result="shape"/>
</filter>
<filter id="filter1_d_2412_9350" x="-22.3804" y="42.8541" width="36.9132" height="36.9144" filterUnits="userSpaceOnUse" color-interpolation-filters="sRGB">
<feFlood flood-opacity="0" result="BackgroundImageFix"/>
<feColorMatrix in="SourceAlpha" type="matrix" values="0 0 0 0 0 0 0 0 0 0 0 0 0 0 0 0 0 0 127 0" result="hardAlpha"/>
<feMorphology radius="0.11913" operator="erode" in="SourceAlpha" result="effect1_dropShadow_2412_9350"/>
<feOffset dy="0.83391"/>
<feGaussianBlur stdDeviation="2.62086"/>
<feComposite in2="hardAlpha" operator="out"/>
<feColorMatrix type="matrix" values="0 0 0 0 0 0 0 0 0 0 0 0 0 0 0 0 0 0 0.08 0"/>
<feBlend mode="normal" in2="BackgroundImageFix" result="effect1_dropShadow_2412_9350"/>
<feBlend mode="normal" in="SourceGraphic" in2="effect1_dropShadow_2412_9350" result="shape"/>
</filter>
<linearGradient id="paint0_linear_2412_9350" x1="3.47004" y1="62.2294" x2="61.6054" y2="7.98684" gradientUnits="userSpaceOnUse">
<stop stop-color="#E66D33"/>
<stop offset="0.971875" stop-color="#F5C6B0"/>
</linearGradient>
<clipPath id="clip0_2412_9350">
<rect x="0.0546875" y="0.63916" width="61.5902" height="61.5902" rx="6.48318" fill="white"/>
</clipPath>
</defs>
</svg>
