<svg width="62" height="63" viewBox="0 0 62 63" fill="none" xmlns="http://www.w3.org/2000/svg">
<g clip-path="url(#clip0_2412_9781)">
<rect x="0.0546875" y="0.639145" width="61.5902" height="61.5902" rx="6.48318" fill="url(#paint0_linear_2412_9781)"/>
<circle opacity="0.4" cx="61.9159" cy="6.99126" r="17.9003" fill="#F5C6B0"/>
<g opacity="0.56" filter="url(#filter0_d_2412_9781)">
<circle cx="61.9166" cy="6.99124" r="13.3346" fill="#F5C6B0"/>
</g>
<circle cx="61.9165" cy="6.99127" r="9.13131" fill="#FCEDE6"/>
<circle opacity="0.4" cx="-3.92395" cy="60.4775" r="17.9003" fill="#F5C6B0"/>
<g opacity="0.56" filter="url(#filter1_d_2412_9781)">
<circle cx="-3.9232" cy="60.4774" r="13.3346" fill="#F5C6B0"/>
</g>
<circle cx="-3.92338" cy="60.4775" r="9.13131" fill="#FCEDE6"/>
<path d="M21.8871 33.4841C21.8871 34.0892 21.725 34.6456 21.4008 35.1535C21.0767 35.6613 20.5959 36.0665 19.9583 36.3691C19.3208 36.6716 18.5537 36.8229 17.6568 36.8229V38.1195H16.9599V36.7905C15.7821 36.6932 14.8204 36.3367 14.0749 35.7208C13.3401 35.1049 12.9349 34.2837 12.8593 33.2572H15.8091C15.8415 33.6029 15.955 33.8947 16.1495 34.1324C16.3548 34.3701 16.6249 34.5322 16.9599 34.6186V32.0416C16.7762 31.9875 16.6573 31.9497 16.6033 31.9281C15.8145 31.7012 15.1662 31.4743 14.6583 31.2474C14.1613 31.0097 13.7291 30.6639 13.3617 30.2101C13.0051 29.7454 12.8268 29.1349 12.8268 28.3786C12.8268 27.7194 13.0051 27.1414 13.3617 26.6443C13.7291 26.1473 14.2261 25.7691 14.8528 25.5098C15.4795 25.2396 16.1819 25.0938 16.9599 25.0721V23.7431H17.6568V25.0884C18.8454 25.164 19.7909 25.5044 20.4932 26.1095C21.1955 26.7037 21.5899 27.4925 21.6764 28.4758H18.6779C18.6347 28.1517 18.5266 27.8869 18.3538 27.6816C18.1809 27.4763 17.9486 27.3359 17.6568 27.2602V29.7887L18.1593 29.9507C18.948 30.1993 19.5856 30.4424 20.0718 30.6801C20.5688 30.907 20.9956 31.2474 21.3522 31.7012C21.7088 32.155 21.8871 32.7493 21.8871 33.4841ZM15.7929 28.2651C15.7929 28.5569 15.8901 28.8054 16.0846 29.0107C16.2899 29.2052 16.5817 29.3835 16.9599 29.5455V27.1954C16.5925 27.217 16.3061 27.3196 16.1008 27.5033C15.8955 27.687 15.7929 27.941 15.7929 28.2651ZM17.6568 34.6997C18.0458 34.6889 18.3538 34.5808 18.5807 34.3755C18.8076 34.1594 18.921 33.8839 18.921 33.5489C18.921 33.2464 18.813 32.9978 18.5969 32.8033C18.3808 32.598 18.0674 32.4198 17.6568 32.2685V34.6997ZM26.0009 33.1923C26.1521 34.1324 26.6276 34.6024 27.4272 34.6024C28.0539 34.6024 28.4915 34.3161 28.74 33.7434C28.9993 33.1707 29.1182 32.2793 29.0966 31.0691C28.9129 31.5121 28.5941 31.8633 28.1403 32.1226C27.6973 32.3711 27.1786 32.4954 26.5844 32.4954C25.5038 32.4954 24.6502 32.1712 24.0235 31.5229C23.3968 30.8638 23.0834 29.9237 23.0834 28.7027C23.0834 27.9356 23.2401 27.2548 23.5535 26.6605C23.8668 26.0662 24.326 25.607 24.9311 25.2829C25.547 24.9479 26.2818 24.7804 27.1354 24.7804C28.2916 24.7804 29.1938 25.0235 29.8422 25.5098C30.4905 25.996 30.9389 26.6605 31.1874 27.5033C31.4359 28.3353 31.5602 29.3402 31.5602 30.518C31.5602 32.5926 31.2414 34.1648 30.6039 35.2345C29.9772 36.2935 28.9183 36.8229 27.4272 36.8229C26.606 36.8229 25.8982 36.6608 25.3039 36.3367C24.7204 36.0017 24.2666 35.5587 23.9425 35.0076C23.6291 34.4566 23.4508 33.8515 23.4076 33.1923H26.0009ZM28.8859 28.8324C28.8859 28.3353 28.7454 27.9356 28.4645 27.633C28.1835 27.3196 27.7729 27.163 27.2327 27.163C26.7464 27.163 26.3628 27.298 26.0819 27.5682C25.8118 27.8383 25.6767 28.2327 25.6767 28.7514C25.6767 29.27 25.8172 29.6698 26.0981 29.9507C26.3791 30.2209 26.7626 30.3559 27.2489 30.3559C27.7135 30.3559 28.1025 30.2263 28.4159 29.9669C28.7292 29.6968 28.8859 29.3186 28.8859 28.8324ZM40.1761 27.1954L36.0755 36.7095H33.2067L37.3559 27.5195H32.4935V25.137H40.1761V27.1954ZM43.9974 33.1923C44.1487 34.1324 44.6241 34.6024 45.4237 34.6024C46.0504 34.6024 46.488 34.3161 46.7365 33.7434C46.9959 33.1707 47.1147 32.2793 47.0931 31.0691C46.9094 31.5121 46.5907 31.8633 46.1368 32.1226C45.6938 32.3711 45.1752 32.4954 44.5809 32.4954C43.5003 32.4954 42.6467 32.1712 42.02 31.5229C41.3933 30.8638 41.08 29.9237 41.08 28.7027C41.08 27.9356 41.2366 27.2548 41.55 26.6605C41.8633 26.0662 42.3226 25.607 42.9277 25.2829C43.5436 24.9479 44.2783 24.7804 45.1319 24.7804C46.2881 24.7804 47.1904 25.0235 47.8387 25.5098C48.487 25.996 48.9354 26.6605 49.1839 27.5033C49.4325 28.3353 49.5567 29.3402 49.5567 30.518C49.5567 32.5926 49.238 34.1648 48.6005 35.2345C47.9737 36.2935 46.9148 36.8229 45.4237 36.8229C44.6025 36.8229 43.8947 36.6608 43.3004 36.3367C42.717 36.0017 42.2631 35.5587 41.939 35.0076C41.6256 34.4566 41.4473 33.8515 41.4041 33.1923H43.9974ZM46.8824 28.8324C46.8824 28.3353 46.7419 27.9356 46.461 27.633C46.1801 27.3196 45.7695 27.163 45.2292 27.163C44.743 27.163 44.3594 27.298 44.0784 27.5682C43.8083 27.8383 43.6732 28.2327 43.6732 28.7514C43.6732 29.27 43.8137 29.6698 44.0946 29.9507C44.3756 30.2209 44.7592 30.3559 45.2454 30.3559C45.71 30.3559 46.099 30.2263 46.4124 29.9669C46.7257 29.6968 46.8824 29.3186 46.8824 28.8324Z" fill="white"/>
</g>
<defs>
<filter id="filter0_d_2412_9781" x="43.4594" y="-10.6321" width="36.9132" height="36.9144" filterUnits="userSpaceOnUse" color-interpolation-filters="sRGB">
<feFlood flood-opacity="0" result="BackgroundImageFix"/>
<feColorMatrix in="SourceAlpha" type="matrix" values="0 0 0 0 0 0 0 0 0 0 0 0 0 0 0 0 0 0 127 0" result="hardAlpha"/>
<feMorphology radius="0.11913" operator="erode" in="SourceAlpha" result="effect1_dropShadow_2412_9781"/>
<feOffset dy="0.83391"/>
<feGaussianBlur stdDeviation="2.62086"/>
<feComposite in2="hardAlpha" operator="out"/>
<feColorMatrix type="matrix" values="0 0 0 0 0 0 0 0 0 0 0 0 0 0 0 0 0 0 0.08 0"/>
<feBlend mode="normal" in2="BackgroundImageFix" result="effect1_dropShadow_2412_9781"/>
<feBlend mode="normal" in="SourceGraphic" in2="effect1_dropShadow_2412_9781" result="shape"/>
</filter>
<filter id="filter1_d_2412_9781" x="-22.3804" y="42.8541" width="36.9132" height="36.9144" filterUnits="userSpaceOnUse" color-interpolation-filters="sRGB">
<feFlood flood-opacity="0" result="BackgroundImageFix"/>
<feColorMatrix in="SourceAlpha" type="matrix" values="0 0 0 0 0 0 0 0 0 0 0 0 0 0 0 0 0 0 127 0" result="hardAlpha"/>
<feMorphology radius="0.11913" operator="erode" in="SourceAlpha" result="effect1_dropShadow_2412_9781"/>
<feOffset dy="0.83391"/>
<feGaussianBlur stdDeviation="2.62086"/>
<feComposite in2="hardAlpha" operator="out"/>
<feColorMatrix type="matrix" values="0 0 0 0 0 0 0 0 0 0 0 0 0 0 0 0 0 0 0.08 0"/>
<feBlend mode="normal" in2="BackgroundImageFix" result="effect1_dropShadow_2412_9781"/>
<feBlend mode="normal" in="SourceGraphic" in2="effect1_dropShadow_2412_9781" result="shape"/>
</filter>
<linearGradient id="paint0_linear_2412_9781" x1="3.47004" y1="62.2294" x2="61.6054" y2="7.98682" gradientUnits="userSpaceOnUse">
<stop stop-color="#E66D33"/>
<stop offset="0.971875" stop-color="#F5C6B0"/>
</linearGradient>
<clipPath id="clip0_2412_9781">
<rect x="0.0546875" y="0.639145" width="61.5902" height="61.5902" rx="6.48318" fill="white"/>
</clipPath>
</defs>
</svg>
