<svg width="63" height="63" viewBox="0 0 63 63" fill="none" xmlns="http://www.w3.org/2000/svg">
<g clip-path="url(#clip0_2412_9726)">
<rect x="0.761719" y="0.63916" width="61.5902" height="61.5902" rx="6.48318" fill="url(#paint0_linear_2412_9726)"/>
<circle opacity="0.4" cx="62.6229" cy="6.99127" r="17.9003" fill="#F5C6B0"/>
<g opacity="0.56" filter="url(#filter0_d_2412_9726)">
<circle cx="62.6237" cy="6.99129" r="13.3346" fill="#F5C6B0"/>
</g>
<circle cx="62.6235" cy="6.9913" r="9.13131" fill="#FCEDE6"/>
<circle opacity="0.4" cx="-3.21692" cy="60.4774" r="17.9003" fill="#F5C6B0"/>
<g opacity="0.56" filter="url(#filter1_d_2412_9726)">
<circle cx="-3.21617" cy="60.4774" r="13.3346" fill="#F5C6B0"/>
</g>
<circle cx="-3.21634" cy="60.4774" r="9.13131" fill="#FCEDE6"/>
<path d="M30.6957 33.484C30.6957 34.0891 30.5336 34.6456 30.2094 35.1534C29.8853 35.6613 29.4044 36.0665 28.7669 36.369C28.1294 36.6716 27.3622 36.8229 26.4654 36.8229V38.1195H25.7685V36.7905C24.5907 36.6932 23.629 36.3366 22.8834 35.7207C22.1487 35.1048 21.7435 34.2836 21.6678 33.2571H24.6177C24.6501 33.6029 24.7636 33.8946 24.9581 34.1323C25.1634 34.3701 25.4335 34.5321 25.7685 34.6186V32.0415C25.5848 31.9875 25.4659 31.9497 25.4119 31.9281C24.6231 31.7012 23.9748 31.4742 23.4669 31.2473C22.9699 31.0096 22.5377 30.6638 22.1703 30.21C21.8137 29.7454 21.6354 29.1349 21.6354 28.3785C21.6354 27.7194 21.8137 27.1413 22.1703 26.6443C22.5377 26.1472 23.0347 25.769 23.6614 25.5097C24.2881 25.2396 24.9905 25.0937 25.7685 25.0721V23.743H26.4654V25.0883C27.654 25.1639 28.5995 25.5043 29.3018 26.1094C30.0041 26.7037 30.3985 27.4925 30.485 28.4758H27.4865C27.4433 28.1516 27.3352 27.8869 27.1623 27.6816C26.9895 27.4763 26.7571 27.3358 26.4654 27.2602V29.7886L26.9679 29.9507C27.7566 30.1992 28.3942 30.4423 28.8804 30.6801C29.3774 30.907 29.8042 31.2473 30.1608 31.7012C30.5174 32.155 30.6957 32.7493 30.6957 33.484ZM24.6015 28.2651C24.6015 28.5568 24.6987 28.8053 24.8932 29.0106C25.0985 29.2051 25.3903 29.3834 25.7685 29.5455V27.1953C25.4011 27.217 25.1147 27.3196 24.9094 27.5033C24.7041 27.687 24.6015 27.9409 24.6015 28.2651ZM26.4654 34.6996C26.8544 34.6888 27.1623 34.5808 27.3893 34.3755C27.6162 34.1594 27.7296 33.8838 27.7296 33.5489C27.7296 33.2463 27.6216 32.9978 27.4055 32.8033C27.1894 32.598 26.876 32.4197 26.4654 32.2684V34.6996ZM37.7593 28.4109C37.6837 27.9463 37.5324 27.5951 37.3055 27.3574C37.0894 27.1197 36.776 27.0008 36.3654 27.0008C35.7387 27.0008 35.2903 27.2926 35.0202 27.8761C34.7608 28.4488 34.642 29.3348 34.6636 30.5342C34.8473 30.0912 35.1606 29.7454 35.6036 29.4969C36.0575 29.2375 36.5815 29.1079 37.1758 29.1079C38.2564 29.1079 39.11 29.4374 39.7367 30.0966C40.3634 30.7449 40.6767 31.6795 40.6767 32.9005C40.6767 33.6677 40.5201 34.3485 40.2067 34.9427C39.8934 35.537 39.4287 36.0017 38.8128 36.3366C38.2077 36.6608 37.4784 36.8229 36.6248 36.8229C34.9499 36.8229 33.7938 36.3042 33.1562 35.2669C32.5187 34.2296 32.2 32.7925 32.2 30.9556C32.2 28.8377 32.5403 27.2818 33.2211 26.2877C33.9018 25.2828 35.0094 24.7804 36.5437 24.7804C37.7539 24.7804 38.6724 25.1261 39.2991 25.8177C39.9258 26.4984 40.2769 27.3628 40.3526 28.4109H37.7593ZM34.8743 32.7709C34.8743 33.2679 35.0148 33.6731 35.2957 33.9865C35.5766 34.289 35.9872 34.4403 36.5275 34.4403C37.0137 34.4403 37.3919 34.3052 37.6621 34.0351C37.943 33.765 38.0835 33.3706 38.0835 32.8519C38.0835 32.3333 37.943 31.9389 37.6621 31.6687C37.3811 31.3878 36.9975 31.2473 36.5113 31.2473C36.0467 31.2473 35.6577 31.3824 35.3443 31.6525C35.031 31.9119 34.8743 32.2846 34.8743 32.7709ZM42.1667 34.6024V32.2846L47.4019 25.1045H50.3842V32.1874H51.7618V34.6024H50.3842V36.7094H47.5802V34.6024H42.1667ZM47.8071 28.3137L44.9869 32.1874H47.8071V28.3137Z" fill="white"/>
</g>
<defs>
<filter id="filter0_d_2412_9726" x="44.1665" y="-10.632" width="36.9132" height="36.9144" filterUnits="userSpaceOnUse" color-interpolation-filters="sRGB">
<feFlood flood-opacity="0" result="BackgroundImageFix"/>
<feColorMatrix in="SourceAlpha" type="matrix" values="0 0 0 0 0 0 0 0 0 0 0 0 0 0 0 0 0 0 127 0" result="hardAlpha"/>
<feMorphology radius="0.11913" operator="erode" in="SourceAlpha" result="effect1_dropShadow_2412_9726"/>
<feOffset dy="0.83391"/>
<feGaussianBlur stdDeviation="2.62086"/>
<feComposite in2="hardAlpha" operator="out"/>
<feColorMatrix type="matrix" values="0 0 0 0 0 0 0 0 0 0 0 0 0 0 0 0 0 0 0.08 0"/>
<feBlend mode="normal" in2="BackgroundImageFix" result="effect1_dropShadow_2412_9726"/>
<feBlend mode="normal" in="SourceGraphic" in2="effect1_dropShadow_2412_9726" result="shape"/>
</filter>
<filter id="filter1_d_2412_9726" x="-21.6734" y="42.8541" width="36.9132" height="36.9144" filterUnits="userSpaceOnUse" color-interpolation-filters="sRGB">
<feFlood flood-opacity="0" result="BackgroundImageFix"/>
<feColorMatrix in="SourceAlpha" type="matrix" values="0 0 0 0 0 0 0 0 0 0 0 0 0 0 0 0 0 0 127 0" result="hardAlpha"/>
<feMorphology radius="0.11913" operator="erode" in="SourceAlpha" result="effect1_dropShadow_2412_9726"/>
<feOffset dy="0.83391"/>
<feGaussianBlur stdDeviation="2.62086"/>
<feComposite in2="hardAlpha" operator="out"/>
<feColorMatrix type="matrix" values="0 0 0 0 0 0 0 0 0 0 0 0 0 0 0 0 0 0 0.08 0"/>
<feBlend mode="normal" in2="BackgroundImageFix" result="effect1_dropShadow_2412_9726"/>
<feBlend mode="normal" in="SourceGraphic" in2="effect1_dropShadow_2412_9726" result="shape"/>
</filter>
<linearGradient id="paint0_linear_2412_9726" x1="4.17707" y1="62.2294" x2="62.3125" y2="7.98684" gradientUnits="userSpaceOnUse">
<stop stop-color="#E66D33"/>
<stop offset="0.971875" stop-color="#F5C6B0"/>
</linearGradient>
<clipPath id="clip0_2412_9726">
<rect x="0.761719" y="0.63916" width="61.5902" height="61.5902" rx="6.48318" fill="white"/>
</clipPath>
</defs>
</svg>
