<svg width="63" height="63" viewBox="0 0 63 63" fill="none" xmlns="http://www.w3.org/2000/svg">
<g clip-path="url(#clip0_2412_9462)">
<rect x="0.761719" y="0.639145" width="61.5902" height="61.5902" rx="6.48318" fill="url(#paint0_linear_2412_9462)"/>
<circle opacity="0.4" cx="62.6229" cy="6.99126" r="17.9003" fill="#F5C6B0"/>
<g opacity="0.56" filter="url(#filter0_d_2412_9462)">
<circle cx="62.6237" cy="6.99124" r="13.3346" fill="#F5C6B0"/>
</g>
<circle cx="62.6235" cy="6.99127" r="9.13131" fill="#FCEDE6"/>
<circle opacity="0.4" cx="-3.21692" cy="60.4775" r="17.9003" fill="#F5C6B0"/>
<g opacity="0.56" filter="url(#filter1_d_2412_9462)">
<circle cx="-3.21617" cy="60.4774" r="13.3346" fill="#F5C6B0"/>
</g>
<circle cx="-3.21634" cy="60.4775" r="9.13131" fill="#FCEDE6"/>
<path d="M25.8363 33.4841C25.8363 34.0892 25.6742 34.6456 25.3501 35.1535C25.0259 35.6613 24.5451 36.0665 23.9076 36.3691C23.27 36.6716 22.5029 36.8229 21.606 36.8229V38.1195H20.9091V36.7905C19.7313 36.6932 18.7696 36.3367 18.0241 35.7208C17.2893 35.1049 16.8841 34.2837 16.8085 33.2572H19.7583C19.7907 33.6029 19.9042 33.8947 20.0987 34.1324C20.304 34.3701 20.5741 34.5322 20.9091 34.6186V32.0416C20.7254 31.9875 20.6065 31.9497 20.5525 31.9281C19.7637 31.7012 19.1154 31.4743 18.6076 31.2474C18.1105 31.0097 17.6783 30.6639 17.3109 30.2101C16.9543 29.7454 16.7761 29.1349 16.7761 28.3786C16.7761 27.7194 16.9543 27.1414 17.3109 26.6443C17.6783 26.1473 18.1753 25.7691 18.8021 25.5098C19.4288 25.2396 20.1311 25.0938 20.9091 25.0721V23.7431H21.606V25.0884C22.7946 25.164 23.7401 25.5044 24.4424 26.1095C25.1448 26.7037 25.5392 27.4925 25.6256 28.4758H22.6271C22.5839 28.1517 22.4759 27.8869 22.303 27.6816C22.1301 27.4763 21.8978 27.3359 21.606 27.2602V29.7887L22.1085 29.9507C22.8973 30.1993 23.5348 30.4424 24.021 30.6801C24.5181 30.907 24.9449 31.2474 25.3014 31.7012C25.658 32.155 25.8363 32.7493 25.8363 33.4841ZM19.7421 28.2651C19.7421 28.5569 19.8394 28.8054 20.0339 29.0107C20.2392 29.2052 20.5309 29.3835 20.9091 29.5455V27.1954C20.5417 27.217 20.2554 27.3196 20.0501 27.5033C19.8448 27.687 19.7421 27.941 19.7421 28.2651ZM21.606 34.6997C21.995 34.6889 22.303 34.5808 22.5299 34.3755C22.7568 34.1594 22.8702 33.8839 22.8702 33.5489C22.8702 33.2464 22.7622 32.9978 22.5461 32.8033C22.33 32.598 22.0166 32.4198 21.606 32.2685V34.6997ZM31.3116 24.748C32.1111 24.748 32.7973 24.8885 33.37 25.1694C33.9426 25.4395 34.3749 25.8177 34.6666 26.304C34.9691 26.7794 35.1204 27.3196 35.1204 27.9247C35.1204 28.6703 34.9259 29.27 34.5369 29.7238C34.1588 30.1777 33.6833 30.464 33.1106 30.5829V30.6639C34.591 31.1393 35.3311 32.0632 35.3311 33.4355C35.3311 34.0946 35.1799 34.6835 34.8773 35.2021C34.5748 35.71 34.1317 36.1098 33.5483 36.4015C32.9756 36.6824 32.284 36.8229 31.4736 36.8229C30.1554 36.8229 29.1073 36.4988 28.3293 35.8504C27.5621 35.2021 27.1461 34.2134 27.0813 32.8844H29.788C29.8096 33.3922 29.9501 33.792 30.2094 34.0838C30.4687 34.3755 30.8469 34.5214 31.344 34.5214C31.7438 34.5214 32.0571 34.4025 32.284 34.1648C32.5217 33.9271 32.6406 33.6191 32.6406 33.241C32.6406 32.3009 31.9599 31.8309 30.5984 31.8309H30.0797V29.578H30.5822C31.8032 29.5996 32.4137 29.162 32.4137 28.2651C32.4137 27.8761 32.3056 27.579 32.0895 27.3737C31.8842 27.1576 31.6033 27.0495 31.2467 27.0495C30.8577 27.0495 30.5498 27.1846 30.3229 27.4547C30.096 27.714 29.9663 28.0652 29.9339 28.5082H27.2271C27.2812 27.298 27.6594 26.3688 28.3617 25.7205C29.064 25.0721 30.0473 24.748 31.3116 24.748ZM36.7812 34.5052C40.2173 32.0524 41.9354 30.102 41.9354 28.6541C41.9354 27.7681 41.5518 27.3251 40.7846 27.3251C40.3524 27.3251 40.0336 27.4763 39.8283 27.7789C39.6338 28.0814 39.5258 28.5515 39.5042 29.189H36.7974C36.8623 27.7951 37.2837 26.747 38.0617 26.0446C38.8396 25.3423 39.8229 24.9911 41.0115 24.9911C42.2541 24.9911 43.1888 25.3045 43.8155 25.9312C44.453 26.5579 44.7718 27.3737 44.7718 28.3786C44.7718 29.4915 44.3449 30.5829 43.4913 31.6526C42.6377 32.7115 41.6166 33.6083 40.428 34.3431H44.95V36.5798H36.7812V34.5052ZM54.5517 27.4061H49.3976V29.7238C49.6245 29.4645 49.9379 29.2646 50.3377 29.1241C50.7483 28.9729 51.1913 28.8972 51.6667 28.8972C52.4339 28.8972 53.0768 29.0701 53.5955 29.4159C54.1141 29.7508 54.4977 30.2047 54.7462 30.7773C54.9947 31.35 55.119 31.9821 55.119 32.6737C55.119 33.9271 54.7678 34.9212 54.0655 35.6559C53.3631 36.3799 52.3745 36.7419 51.0994 36.7419C50.235 36.7419 49.484 36.5906 48.8465 36.2881C48.209 35.9747 47.7174 35.5425 47.3716 34.9914C47.0258 34.4403 46.8421 33.8028 46.8205 33.0789H49.5273C49.5813 33.4463 49.7272 33.7488 49.9649 33.9865C50.2134 34.2242 50.5484 34.3431 50.9698 34.3431C51.456 34.3431 51.818 34.1864 52.0557 33.8731C52.3042 33.5597 52.4285 33.1437 52.4285 32.6251C52.4285 32.128 52.2988 31.7444 52.0395 31.4743C51.7802 31.2042 51.4182 31.0691 50.9536 31.0691C50.597 31.0691 50.2998 31.1501 50.0621 31.3122C49.8244 31.4635 49.6623 31.6634 49.5759 31.9119H46.8854V24.9749H54.5517V27.4061Z" fill="white"/>
</g>
<defs>
<filter id="filter0_d_2412_9462" x="44.1665" y="-10.6321" width="36.9132" height="36.9144" filterUnits="userSpaceOnUse" color-interpolation-filters="sRGB">
<feFlood flood-opacity="0" result="BackgroundImageFix"/>
<feColorMatrix in="SourceAlpha" type="matrix" values="0 0 0 0 0 0 0 0 0 0 0 0 0 0 0 0 0 0 127 0" result="hardAlpha"/>
<feMorphology radius="0.11913" operator="erode" in="SourceAlpha" result="effect1_dropShadow_2412_9462"/>
<feOffset dy="0.83391"/>
<feGaussianBlur stdDeviation="2.62086"/>
<feComposite in2="hardAlpha" operator="out"/>
<feColorMatrix type="matrix" values="0 0 0 0 0 0 0 0 0 0 0 0 0 0 0 0 0 0 0.08 0"/>
<feBlend mode="normal" in2="BackgroundImageFix" result="effect1_dropShadow_2412_9462"/>
<feBlend mode="normal" in="SourceGraphic" in2="effect1_dropShadow_2412_9462" result="shape"/>
</filter>
<filter id="filter1_d_2412_9462" x="-21.6734" y="42.8541" width="36.9132" height="36.9144" filterUnits="userSpaceOnUse" color-interpolation-filters="sRGB">
<feFlood flood-opacity="0" result="BackgroundImageFix"/>
<feColorMatrix in="SourceAlpha" type="matrix" values="0 0 0 0 0 0 0 0 0 0 0 0 0 0 0 0 0 0 127 0" result="hardAlpha"/>
<feMorphology radius="0.11913" operator="erode" in="SourceAlpha" result="effect1_dropShadow_2412_9462"/>
<feOffset dy="0.83391"/>
<feGaussianBlur stdDeviation="2.62086"/>
<feComposite in2="hardAlpha" operator="out"/>
<feColorMatrix type="matrix" values="0 0 0 0 0 0 0 0 0 0 0 0 0 0 0 0 0 0 0.08 0"/>
<feBlend mode="normal" in2="BackgroundImageFix" result="effect1_dropShadow_2412_9462"/>
<feBlend mode="normal" in="SourceGraphic" in2="effect1_dropShadow_2412_9462" result="shape"/>
</filter>
<linearGradient id="paint0_linear_2412_9462" x1="4.17707" y1="62.2294" x2="62.3125" y2="7.98682" gradientUnits="userSpaceOnUse">
<stop stop-color="#E66D33"/>
<stop offset="0.971875" stop-color="#F5C6B0"/>
</linearGradient>
<clipPath id="clip0_2412_9462">
<rect x="0.761719" y="0.639145" width="61.5902" height="61.5902" rx="6.48318" fill="white"/>
</clipPath>
</defs>
</svg>
