<svg width="14" height="14" viewBox="0 0 14 14" fill="none" xmlns="http://www.w3.org/2000/svg">
<path d="M11.8125 1.53125H4.8125C4.63845 1.53125 4.47153 1.60039 4.34846 1.72346C4.22539 1.84653 4.15625 2.01345 4.15625 2.1875V4.15625H2.1875C2.01345 4.15625 1.84653 4.22539 1.72346 4.34846C1.60039 4.47153 1.53125 4.63845 1.53125 4.8125V11.8125C1.53125 11.9865 1.60039 12.1535 1.72346 12.2765C1.84653 12.3996 2.01345 12.4688 2.1875 12.4688H9.1875C9.36155 12.4688 9.52847 12.3996 9.65154 12.2765C9.77461 12.1535 9.84375 11.9865 9.84375 11.8125V9.84375H11.8125C11.9865 9.84375 12.1535 9.77461 12.2765 9.65154C12.3996 9.52847 12.4688 9.36155 12.4688 9.1875V2.1875C12.4688 2.01345 12.3996 1.84653 12.2765 1.72346C12.1535 1.60039 11.9865 1.53125 11.8125 1.53125ZM8.53125 11.1562H2.84375V5.46875H8.53125V11.1562ZM11.1562 8.53125H9.84375V4.8125C9.84375 4.63845 9.77461 4.47153 9.65154 4.34846C9.52847 4.22539 9.36155 4.15625 9.1875 4.15625H5.46875V2.84375H11.1562V8.53125Z" fill="#CC4200"/>
</svg>
