<svg width="24" height="25" viewBox="0 0 24 25" fill="white" xmlns="http://www.w3.org/2000/svg">
<path d="M12 7.69116V9.19116" stroke="#5B5654" stroke-width="2" stroke-linecap="round" stroke-linejoin="round"/>
<path d="M12 16.6912V18.1912" stroke="#5B5654" stroke-width="2" stroke-linecap="round" stroke-linejoin="round"/>
<path d="M12 21.9412C16.9706 21.9412 21 17.9117 21 12.9412C21 7.9706 16.9706 3.94116 12 3.94116C7.02944 3.94116 3 7.9706 3 12.9412C3 17.9117 7.02944 21.9412 12 21.9412Z" stroke="#5B5654" stroke-width="2" stroke-linecap="round" stroke-linejoin="round"/>
<path d="M9.75 16.6912H13.125C13.6223 16.6912 14.0992 16.4936 14.4508 16.142C14.8025 15.7904 15 15.3134 15 14.8162C15 14.3189 14.8025 13.842 14.4508 13.4903C14.0992 13.1387 13.6223 12.9412 13.125 12.9412H10.875C10.3777 12.9412 9.90081 12.7436 9.54917 12.392C9.19754 12.0404 9 11.5634 9 11.0662C9 10.5689 9.19754 10.092 9.54917 9.74034C9.90081 9.38871 10.3777 9.19116 10.875 9.19116H14.25" stroke="#5B5654" stroke-width="2" stroke-linecap="round" stroke-linejoin="round"/>
</svg>
