<svg width="34" height="34" viewBox="0 0 34 34" fill="none" xmlns="http://www.w3.org/2000/svg">
<path d="M10.0742 10.8307V14.637C10.0742 15.0512 10.41 15.387 10.8242 15.387H14.6277C15.0419 15.387 15.3777 15.0512 15.3777 14.637V10.8307C15.3777 10.4165 15.0419 10.0807 14.6277 10.0807H10.8242C10.41 10.0807 10.0742 10.4165 10.0742 10.8307Z" stroke="#E04800" stroke-width="2" stroke-linecap="round" stroke-linejoin="round"/>
<path d="M18.5625 10.8292V14.6355C18.5625 15.0497 18.8983 15.3855 19.3125 15.3855H23.1159C23.5302 15.3855 23.8659 15.0497 23.8659 14.6355V10.8292C23.8659 10.415 23.5302 10.0792 23.1159 10.0792H19.3125C18.8983 10.0792 18.5625 10.415 18.5625 10.8292Z" stroke="#E04800" stroke-width="2" stroke-linecap="round" stroke-linejoin="round"/>
<path d="M10.0703 19.3092V23.1155C10.0703 23.5297 10.4061 23.8655 10.8203 23.8655H14.6238C15.038 23.8655 15.3738 23.5297 15.3738 23.1155V19.3092C15.3738 18.895 15.038 18.5592 14.6238 18.5592H10.8203C10.4061 18.5592 10.0703 18.895 10.0703 19.3092Z" stroke="#E04800" stroke-width="2" stroke-linecap="round" stroke-linejoin="round"/>
<path d="M18.5586 19.3092V23.1155C18.5586 23.5297 18.8944 23.8655 19.3086 23.8655H23.112C23.5262 23.8655 23.862 23.5297 23.862 23.1155V19.3092C23.862 18.895 23.5262 18.5592 23.112 18.5592H19.3086C18.8944 18.5592 18.5586 18.895 18.5586 19.3092Z" stroke="#E04800" stroke-width="2" stroke-linecap="round" stroke-linejoin="round"/>
</svg>
