<svg width="30" height="36" viewBox="0 0 30 36" fill="none" xmlns="http://www.w3.org/2000/svg">
<path d="M15.3435 16.7378C15.3321 17.7129 16.1453 18.2571 16.7579 18.5806C17.3873 18.9126 17.5987 19.1254 17.5962 19.4223C17.5915 19.8766 17.0941 20.0771 16.6288 20.0849C15.8168 20.0985 15.3447 19.8473 14.9694 19.6573L14.6769 21.1407C15.0534 21.3288 15.7507 21.4928 16.4738 21.5C18.171 21.5 19.2814 20.5919 19.2874 19.184C19.2941 17.3972 17.0071 17.2983 17.0227 16.4996C17.0281 16.2575 17.2413 15.999 17.7085 15.9333C17.9398 15.9001 18.5781 15.8747 19.3019 16.2359L19.5859 14.8007C19.1967 14.6471 18.6965 14.5 18.0737 14.5C16.4762 14.5 15.3526 15.4204 15.3435 16.7378ZM22.3155 14.6236C22.0055 14.6236 21.7444 14.8196 21.6278 15.1203L19.2034 21.3946H20.8994L21.2369 20.3836H23.3094L23.5052 21.3946H25L23.6955 14.6236H22.3155ZM22.5527 16.4527L23.0422 18.9953H21.7017L22.5527 16.4527ZM13.2872 14.6237L11.9503 21.3945H13.5665L14.9027 14.6235L13.2872 14.6237ZM10.8963 14.6235L9.21414 19.2322L8.53367 15.3137C8.45383 14.8762 8.13852 14.6236 7.78836 14.6236H5.03852L5 14.8202C5.56453 14.953 6.20594 15.1672 6.59453 15.3963C6.83234 15.5363 6.90016 15.6586 6.97828 15.9912L8.26711 21.3946H9.975L12.5934 14.6236L10.8963 14.6235Z" fill="#222357"/>
</svg>
