<svg width="30" height="36" viewBox="0 0 30 36" fill="none" xmlns="http://www.w3.org/2000/svg">
<path d="M8.63939 25.9644V24.9025C8.63939 24.4954 8.399 24.2299 7.98694 24.2299C7.78095 24.2299 7.55776 24.3007 7.40323 24.5308C7.28311 24.3361 7.11145 24.2299 6.85393 24.2299C6.6822 24.2299 6.51062 24.283 6.37321 24.4777V24.2653H6.0127V25.9644H6.37321V25.0264C6.37321 24.7255 6.52774 24.5839 6.76814 24.5839C7.00838 24.5839 7.12866 24.7432 7.12866 25.0264V25.9644H7.48918V25.0264C7.48918 24.7255 7.66076 24.5839 7.88395 24.5839C8.12435 24.5839 8.24447 24.7432 8.24447 25.0264V25.9644H8.63939ZM13.9784 24.2653H13.3948V23.7521H13.0343V24.2653H12.7081V24.6015H13.0342V25.3804C13.0342 25.7698 13.1887 25.9998 13.6008 25.9998C13.7553 25.9998 13.9269 25.9468 14.0472 25.876L13.9441 25.5573C13.8411 25.6281 13.721 25.6459 13.6351 25.6459C13.4635 25.6459 13.3948 25.5397 13.3948 25.3626V24.6015H13.9784V24.2653ZM17.0343 24.2299C16.8283 24.2299 16.691 24.3361 16.6051 24.4777V24.2653H16.2446V25.9644H16.6051V25.0087C16.6051 24.7255 16.7252 24.5662 16.9484 24.5662C17.0171 24.5662 17.103 24.584 17.1716 24.6016L17.2746 24.2477C17.206 24.2299 17.103 24.2299 17.0343 24.2299ZM12.4162 24.4069C12.2445 24.283 12.0042 24.2299 11.7467 24.2299C11.3347 24.2299 11.06 24.4423 11.06 24.7786C11.06 25.0618 11.266 25.2211 11.6265 25.2742L11.7982 25.2919C11.987 25.3272 12.09 25.3804 12.09 25.4689C12.09 25.5927 11.9527 25.6813 11.7123 25.6813C11.472 25.6813 11.2831 25.5927 11.1629 25.5043L10.9913 25.7874C11.1801 25.929 11.4377 25.9998 11.6951 25.9998C12.1758 25.9998 12.4506 25.7698 12.4506 25.4512C12.4506 25.1503 12.2274 24.991 11.884 24.9379L11.7123 24.9202C11.5578 24.9024 11.4377 24.8671 11.4377 24.7609C11.4377 24.637 11.5578 24.5662 11.7467 24.5662C11.9527 24.5662 12.1587 24.6547 12.2617 24.7078L12.4162 24.4069ZM21.9958 24.2299C21.7897 24.2299 21.6524 24.3361 21.5665 24.4777V24.2653H21.206V25.9644H21.5665V25.0087C21.5665 24.7255 21.6867 24.5662 21.9098 24.5662C21.9786 24.5662 22.0644 24.584 22.1331 24.6016L22.2361 24.2477C22.1674 24.2299 22.0644 24.2299 21.9958 24.2299ZM17.3948 25.1149C17.3948 25.6281 17.7381 25.9998 18.2704 25.9998C18.5107 25.9998 18.6824 25.9468 18.854 25.8052L18.6824 25.5043C18.545 25.6105 18.4077 25.6635 18.2532 25.6635C17.9613 25.6635 17.7553 25.4512 17.7553 25.1149C17.7553 24.7963 17.9613 24.5839 18.2532 24.5662C18.4077 24.5662 18.545 24.6193 18.6824 24.7255L18.854 24.4247C18.6824 24.283 18.5107 24.2299 18.2704 24.2299C17.7381 24.2299 17.3948 24.6016 17.3948 25.1149ZM20.7253 24.2653H20.3648V24.4777C20.2446 24.3185 20.073 24.2299 19.8498 24.2299C19.3863 24.2299 19.0258 24.6016 19.0258 25.1149C19.0258 25.6281 19.3863 25.9998 19.8498 25.9998C20.0901 25.9998 20.2618 25.9114 20.3648 25.752V25.9644H20.7253V24.2653ZM19.4034 25.1149C19.4034 24.814 19.5923 24.5662 19.9012 24.5662C20.1931 24.5662 20.3992 24.7963 20.3992 25.1149C20.3992 25.4158 20.1931 25.6635 19.9012 25.6635C19.5923 25.6458 19.4034 25.4158 19.4034 25.1149ZM15.0944 24.2299C14.6137 24.2299 14.2703 24.5839 14.2703 25.1149C14.2703 25.6459 14.6136 25.9998 15.1115 25.9998C15.3518 25.9998 15.5922 25.929 15.7811 25.7698L15.6094 25.5043C15.472 25.6105 15.3004 25.6813 15.1287 25.6813C14.9055 25.6813 14.6823 25.5751 14.6308 25.2741H15.8498V25.1326C15.867 24.5839 15.558 24.2299 15.0944 24.2299ZM15.0944 24.5485C15.3175 24.5485 15.4721 24.6901 15.5064 24.9556H14.648C14.6823 24.7255 14.8369 24.5485 15.0944 24.5485ZM24.0387 23.5928H23.6782V24.4777C23.558 24.3185 23.3863 24.2299 23.1631 24.2299C22.6996 24.2299 22.3391 24.6016 22.3391 25.1149C22.3391 25.6281 22.6996 25.9998 23.1631 25.9998C23.4035 25.9998 23.5752 25.9114 23.6782 25.752V25.9644H24.0387V23.5928ZM22.7168 25.1149C22.7168 24.814 22.9056 24.5662 23.2146 24.5662C23.5065 24.5662 23.7125 24.7963 23.7125 25.1149C23.7125 25.4158 23.5065 25.6635 23.2146 25.6635C22.9056 25.6458 22.7168 25.4158 22.7168 25.1149ZM10.6651 24.2653H10.3046V24.4777C10.1844 24.3185 10.0127 24.2299 9.78953 24.2299C9.32602 24.2299 8.9655 24.6016 8.9655 25.1149C8.9655 25.6281 9.32602 25.9998 9.78953 25.9998C10.0299 25.9998 10.2016 25.9114 10.3046 25.752V25.9644H10.6651V24.2653ZM9.32602 25.1149C9.32602 24.814 9.51488 24.5662 9.82386 24.5662C10.1157 24.5662 10.3218 24.7963 10.3218 25.1149C10.3218 25.4158 10.1157 25.6635 9.82386 25.6635C9.51488 25.6458 9.32602 25.4158 9.32602 25.1149Z" fill="black"/>
<path d="M12.2969 11.3628H17.7046V21.3804H12.2969V11.3628Z" fill="#FF5F00"/>
<path d="M12.6396 16.3716C12.6396 14.3363 13.5666 12.531 14.9915 11.3628C13.9444 10.5133 12.6225 10 11.1804 10C7.76394 10 5 12.8495 5 16.3716C5 19.8937 7.76394 22.7433 11.1803 22.7433C12.6224 22.7433 13.9443 22.23 14.9915 21.3804C13.5666 20.23 12.6396 18.407 12.6396 16.3716Z" fill="#EB001B"/>
<path d="M25.0003 16.3716C25.0003 19.8937 22.2364 22.7433 18.82 22.7433C17.3779 22.7433 16.056 22.23 15.0088 21.3804C16.4509 20.2123 17.3608 18.407 17.3608 16.3716C17.3608 14.3363 16.4337 12.531 15.0088 11.3628C16.0559 10.5133 17.3779 10 18.82 10C22.2364 10 25.0003 12.8672 25.0003 16.3716Z" fill="#F79E1B"/>
</svg>
