<svg width="224" height="216" viewBox="0 0 224 216" fill="none" xmlns="http://www.w3.org/2000/svg">
<path d="M192 108C192 152.183 156.183 188 112 188C67.8172 188 32 152.183 32 108C32 63.8172 67.8172 28 112 28C156.183 28 192 63.8172 192 108ZM48 108C48 143.346 76.6538 172 112 172C147.346 172 176 143.346 176 108C176 72.6538 147.346 44 112 44C76.6538 44 48 72.6538 48 108Z" fill="#D9D9D9"/>
<path d="M192 108C192 152.183 156.183 188 112 188C67.8172 188 32 152.183 32 108C32 63.8172 67.8172 28 112 28C156.183 28 192 63.8172 192 108ZM48 108C48 143.346 76.6538 172 112 172C147.346 172 176 143.346 176 108C176 72.6538 147.346 44 112 44C76.6538 44 48 72.6538 48 108Z" fill="#FDFCE6"/>
<path d="M159.764 41.3473C160.408 40.4495 160.203 39.1978 159.29 38.576C146.133 29.614 130.687 24.567 114.75 24.045C98.145 23.5012 81.7519 27.8934 67.6434 36.6663C53.5349 45.4392 42.3448 58.1988 35.488 73.3314C28.6312 88.4641 26.4157 105.29 29.1217 121.682C31.8278 138.074 39.3338 153.295 50.6905 165.421C62.0473 177.547 76.7448 186.033 92.9243 189.805C109.104 193.578 126.039 192.468 141.588 186.617C156.512 181 169.516 171.256 179.094 158.541C179.759 157.659 179.551 156.408 178.653 155.764L162.786 144.394C161.888 143.751 160.641 143.959 159.969 144.835C153.106 153.772 143.874 160.626 133.303 164.604C122.108 168.817 109.915 169.616 98.2655 166.9C86.6162 164.183 76.034 158.074 67.8572 149.343C59.6803 140.612 54.276 129.653 52.3277 117.851C50.3793 106.049 51.9744 93.9341 56.9113 83.0386C61.8482 72.1431 69.9052 62.9562 80.0632 56.6398C90.2213 50.3233 102.024 47.1608 113.98 47.5524C125.268 47.9221 136.213 51.4446 145.584 57.7016C146.503 58.315 147.751 58.1117 148.394 57.2139L159.764 41.3473Z" fill="#E04800"/>
<path d="M178.476 156.009C179.372 156.656 180.624 156.456 181.249 155.545C190.402 142.215 195.52 126.513 195.968 110.321C196.416 94.1297 192.172 78.1688 183.77 64.3535C183.196 63.4098 181.957 63.1404 181.027 63.7366L164.595 74.2735C163.666 74.8697 163.398 76.1053 163.963 77.0543C169.821 86.8902 172.774 98.2004 172.457 109.671C172.14 121.142 168.566 132.272 162.174 141.769C161.558 142.686 161.756 143.934 162.652 144.581L178.476 156.009Z" fill="#416DDB"/>
<g opacity="0.88">
<path d="M91.2888 95.044C91.2888 96.0427 91.0835 96.9153 90.6728 97.662C90.2715 98.3993 89.6788 98.9733 88.8948 99.384C88.1202 99.7947 87.1915 100 86.1088 100H82.8048V90.116H86.1088C87.1915 90.116 88.1202 90.3213 88.8948 90.732C89.6788 91.1333 90.2715 91.7027 90.6728 92.44C91.0835 93.1773 91.2888 94.0453 91.2888 95.044ZM85.9828 98.558C87.1682 98.558 88.0782 98.25 88.7128 97.634C89.3475 97.018 89.6648 96.1547 89.6648 95.044C89.6648 93.9333 89.3475 93.07 88.7128 92.454C88.0782 91.838 87.1682 91.53 85.9828 91.53H84.4008V98.558H85.9828ZM96.0027 92.188C96.7027 92.188 97.3 92.3607 97.7947 92.706C98.2894 93.0513 98.6394 93.5087 98.8447 94.078V92.286H100.441V100H98.8447V98.208C98.6394 98.7773 98.2894 99.2347 97.7947 99.58C97.3 99.9253 96.7027 100.098 96.0027 100.098C95.3307 100.098 94.7287 99.9393 94.1967 99.622C93.674 99.3047 93.2634 98.8473 92.9647 98.25C92.666 97.6527 92.5167 96.948 92.5167 96.136C92.5167 95.3333 92.666 94.6333 92.9647 94.036C93.2634 93.4387 93.674 92.9813 94.1967 92.664C94.7287 92.3467 95.3307 92.188 96.0027 92.188ZM96.4927 93.588C95.7834 93.588 95.214 93.8167 94.7847 94.274C94.3647 94.722 94.1547 95.3427 94.1547 96.136C94.1547 96.9293 94.3647 97.5547 94.7847 98.012C95.214 98.46 95.7834 98.684 96.4927 98.684C96.9407 98.684 97.342 98.5813 97.6967 98.376C98.0514 98.1613 98.3314 97.8627 98.5367 97.48C98.742 97.0973 98.8447 96.6493 98.8447 96.136C98.8447 95.632 98.742 95.1887 98.5367 94.806C98.3314 94.414 98.0514 94.1153 97.6967 93.91C97.342 93.6953 96.9407 93.588 96.4927 93.588ZM103.28 92.286L105.59 97.956L107.732 92.286H109.51L104.848 103.668H103.07L104.736 99.818L101.488 92.286H103.28ZM113.107 92.188C114.013 92.188 114.736 92.4213 115.277 92.888C115.828 93.3453 116.164 93.9613 116.285 94.736H114.773C114.708 94.316 114.526 93.98 114.227 93.728C113.938 93.4667 113.551 93.336 113.065 93.336C112.664 93.336 112.351 93.434 112.127 93.63C111.913 93.8167 111.805 94.0733 111.805 94.4C111.805 94.6427 111.885 94.8387 112.043 94.988C112.202 95.1373 112.398 95.254 112.631 95.338C112.874 95.422 113.215 95.5153 113.653 95.618C114.232 95.7487 114.699 95.884 115.053 96.024C115.417 96.164 115.725 96.388 115.977 96.696C116.239 96.9947 116.369 97.4053 116.369 97.928C116.369 98.572 116.122 99.0947 115.627 99.496C115.142 99.8973 114.484 100.098 113.653 100.098C112.692 100.098 111.913 99.874 111.315 99.426C110.727 98.978 110.373 98.3527 110.251 97.55H111.805C111.852 97.97 112.039 98.3107 112.365 98.572C112.692 98.8333 113.121 98.964 113.653 98.964C114.036 98.964 114.335 98.866 114.549 98.67C114.773 98.4647 114.885 98.208 114.885 97.9C114.885 97.6293 114.801 97.4147 114.633 97.256C114.465 97.0973 114.255 96.976 114.003 96.892C113.751 96.7987 113.406 96.7053 112.967 96.612C112.407 96.4813 111.95 96.3507 111.595 96.22C111.25 96.0893 110.951 95.8793 110.699 95.59C110.457 95.2913 110.335 94.89 110.335 94.386C110.335 93.7327 110.578 93.2053 111.063 92.804C111.558 92.3933 112.239 92.188 113.107 92.188ZM122.875 89.64V100H121.279V89.64H122.875ZM131.988 95.772C131.988 96.0333 131.97 96.262 131.932 96.458H125.996C126.024 97.2513 126.244 97.8393 126.654 98.222C127.065 98.6047 127.574 98.796 128.18 98.796C128.712 98.796 129.16 98.6607 129.524 98.39C129.898 98.1193 130.126 97.76 130.21 97.312H131.918C131.816 97.8533 131.601 98.334 131.274 98.754C130.948 99.174 130.523 99.5053 130 99.748C129.478 99.9813 128.894 100.098 128.25 100.098C127.504 100.098 126.841 99.9393 126.262 99.622C125.693 99.3047 125.245 98.8473 124.918 98.25C124.592 97.6527 124.428 96.948 124.428 96.136C124.428 95.3333 124.592 94.6333 124.918 94.036C125.245 93.4387 125.693 92.9813 126.262 92.664C126.841 92.3467 127.504 92.188 128.25 92.188C129.006 92.188 129.664 92.3467 130.224 92.664C130.794 92.972 131.228 93.4013 131.526 93.952C131.834 94.4933 131.988 95.1 131.988 95.772ZM130.378 95.73C130.397 95.226 130.308 94.806 130.112 94.47C129.926 94.1247 129.664 93.8727 129.328 93.714C129.002 93.546 128.642 93.462 128.25 93.462C127.625 93.462 127.102 93.6533 126.682 94.036C126.262 94.4187 126.034 94.9833 125.996 95.73H130.378ZM137.141 90.69C136.516 90.662 136.077 90.7647 135.825 90.998C135.573 91.222 135.447 91.6093 135.447 92.16V92.286H137.141V93.658H135.447V100H133.837V93.658H132.787V92.286H133.837V92.034C133.837 91.0913 134.113 90.3867 134.663 89.92C135.214 89.444 136.04 89.234 137.141 89.29V90.69ZM142.316 98.614V100H141.336C140.515 100 139.89 99.804 139.46 99.412C139.04 99.0107 138.83 98.348 138.83 97.424V93.644H137.724V92.286H138.83V90.368H140.44V92.286H142.302V93.644H140.44V97.452C140.44 97.8907 140.52 98.194 140.678 98.362C140.846 98.53 141.136 98.614 141.546 98.614H142.316Z" fill="#8E8B8A"/>
</g>
<g opacity="0.88">
<path d="M99.3038 129.074C101.896 127.298 103.968 125.562 105.52 123.866C107.088 122.154 107.872 120.57 107.872 119.114C107.872 118.25 107.656 117.562 107.224 117.05C106.808 116.538 106.128 116.282 105.184 116.282C104.208 116.282 103.472 116.602 102.976 117.242C102.48 117.866 102.2 118.762 102.136 119.93H99.4718C99.5838 117.994 100.176 116.514 101.248 115.49C102.336 114.466 103.72 113.954 105.4 113.954C107.048 113.954 108.336 114.394 109.264 115.274C110.208 116.138 110.68 117.338 110.68 118.874C110.68 120.106 110.296 121.354 109.528 122.618C108.776 123.882 107.816 125.05 106.648 126.122C105.48 127.178 104.272 128.09 103.024 128.858H111.064V131.09H99.3038V129.074ZM123.505 116.234L117.193 131.21H114.313L120.721 116.546H112.321V114.17H123.505V116.234Z" fill="#416DDB"/>
</g>
</svg>
