<svg width="24" height="25" viewBox="0 0 24 25" fill="white" xmlns="http://www.w3.org/2000/svg">
<path d="M12 17.4414C14.4853 17.4414 16.5 15.4267 16.5 12.9414C16.5 10.4561 14.4853 8.44141 12 8.44141C9.51472 8.44141 7.5 10.4561 7.5 12.9414C7.5 15.4267 9.51472 17.4414 12 17.4414Z" stroke="#8E8B8A" stroke-width="2" stroke-linecap="round" stroke-linejoin="round"/>
<path d="M17.2203 7.04395C17.4578 7.2627 17.6828 7.4877 17.8953 7.71895L20.4547 8.08457C20.8717 8.80879 21.1931 9.584 21.4109 10.3908L19.8547 12.4627C19.8547 12.4627 19.8828 13.1002 19.8547 13.4189L21.4109 15.4908C21.1941 16.298 20.8727 17.0733 20.4547 17.7971L17.8953 18.1627C17.8953 18.1627 17.4547 18.6221 17.2203 18.8377L16.8547 21.3971C16.1305 21.8141 15.3553 22.1355 14.5484 22.3533L12.4766 20.7971C12.1584 20.8252 11.8384 20.8252 11.5203 20.7971L9.44844 22.3533C8.64127 22.1365 7.86594 21.815 7.14219 21.3971L6.77656 18.8377C6.54531 18.6189 6.32031 18.3939 6.10156 18.1627L3.54219 17.7971C3.12517 17.0728 2.80375 16.2976 2.58594 15.4908L4.14219 13.4189C4.14219 13.4189 4.11406 12.7814 4.14219 12.4627L2.58594 10.3908C2.80274 9.58365 3.12421 8.80832 3.54219 8.08457L6.10156 7.71895C6.32031 7.4877 6.54531 7.2627 6.77656 7.04395L7.14219 4.48457C7.86641 4.06755 8.64161 3.74613 9.44844 3.52832L11.5203 5.08457C11.8384 5.05644 12.1584 5.05644 12.4766 5.08457L14.5484 3.52832C15.3556 3.74512 16.1309 4.0666 16.8547 4.48457L17.2203 7.04395Z" stroke="#8E8B8A" stroke-width="2" stroke-linecap="round" stroke-linejoin="round"/>
</svg>
