<svg width="100" height="100" viewBox="0 0 100 100" fill="none" xmlns="http://www.w3.org/2000/svg">
<path d="M100 50C100 77.6142 77.6142 100 50 100C22.3858 100 0 77.6142 0 50C0 22.3858 22.3858 0 50 0C77.6142 0 100 22.3858 100 50ZM6 50C6 74.3005 25.6995 94 50 94C74.3005 94 94 74.3005 94 50C94 25.6995 74.3005 6 50 6C25.6995 6 6 25.6995 6 50Z" fill="#D9D9D9"/>
<path d="M77.9595 10.9838C78.6029 10.086 78.3988 8.83291 77.476 8.22592C69.1774 2.76757 59.4261 -0.103985 49.4637 0.00287619C38.8336 0.116899 28.5166 3.61601 20.0104 9.9922C11.5042 16.3684 5.25164 25.2898 2.16048 35.4611C-0.930692 45.6324 -0.699561 56.5242 2.82031 66.5553C6.34019 76.5863 12.9656 85.2344 21.7346 91.244C30.5036 97.2536 40.9598 100.312 51.5852 99.9749C62.2105 99.6378 72.4519 95.923 80.8224 89.3698C88.6672 83.2281 94.4861 74.893 97.5544 65.446C97.8956 64.3955 97.272 63.2896 96.2087 62.9907L94.2833 62.4494C93.22 62.1505 92.12 62.772 91.7731 63.8207C89.0538 72.04 83.9639 79.2903 77.1237 84.6454C69.7576 90.4123 60.7452 93.6813 51.395 93.9779C42.0447 94.2745 32.8432 91.5832 25.1265 86.2947C17.4097 81.0063 11.5794 73.396 8.48188 64.5686C5.38439 55.7413 5.18099 46.1565 7.90122 37.2058C10.6214 28.255 16.1237 20.4042 23.6092 14.7931C31.0946 9.18209 40.1736 6.10287 49.5281 6.00253C58.2147 5.90935 66.7189 8.3894 73.9779 13.1074C74.904 13.7094 76.1512 13.5073 76.7946 12.6095L77.9595 10.9838Z" fill="#E04800"/>
<g opacity="0.88">
<path d="M41.024 47.744C40.832 46.4853 40.176 45.856 39.056 45.856C38.2453 45.856 37.6373 46.1813 37.232 46.832C36.8267 47.472 36.624 48.48 36.624 49.856L36.64 50.4C36.8 49.824 37.1467 49.3653 37.68 49.024C38.2133 48.6827 38.8427 48.512 39.568 48.512C40.6773 48.512 41.5467 48.8427 42.176 49.504C42.8053 50.1653 43.12 51.0987 43.12 52.304C43.12 53.0293 42.976 53.68 42.688 54.256C42.4 54.8213 41.968 55.2747 41.392 55.616C40.816 55.9467 40.1067 56.112 39.264 56.112C37.632 56.112 36.512 55.6053 35.904 54.592C35.296 53.5787 34.992 52.1867 34.992 50.416C34.992 48.3893 35.3173 46.8747 35.968 45.872C36.6187 44.8693 37.6853 44.368 39.168 44.368C40.2773 44.368 41.1253 44.6827 41.712 45.312C42.3093 45.9413 42.656 46.752 42.752 47.744H41.024ZM36.8 52.096C36.8 52.7893 37.0027 53.3707 37.408 53.84C37.8133 54.2987 38.4107 54.528 39.2 54.528C39.872 54.528 40.4053 54.3307 40.8 53.936C41.2053 53.5413 41.408 52.992 41.408 52.288C41.408 51.5307 41.2053 50.9493 40.8 50.544C40.3947 50.1387 39.8453 49.936 39.152 49.936C38.5227 49.936 37.9733 50.1227 37.504 50.496C37.0347 50.8693 36.8 51.4027 36.8 52.096ZM52.9447 46.144H47.3607V49.504C47.6167 49.1733 47.9794 48.912 48.4488 48.72C48.9181 48.5173 49.4354 48.416 50.0008 48.416C50.7901 48.416 51.4461 48.5867 51.9688 48.928C52.4914 49.2587 52.8754 49.7013 53.1208 50.256C53.3768 50.8107 53.5048 51.424 53.5048 52.096C53.5048 53.28 53.1741 54.24 52.5127 54.976C51.8514 55.7013 50.8914 56.064 49.6328 56.064C48.4487 56.064 47.4941 55.7493 46.7687 55.12C46.0434 54.4907 45.6487 53.6533 45.5847 52.608H47.3767C47.4727 53.184 47.7074 53.6373 48.0807 53.968C48.4647 54.2987 48.9501 54.464 49.5367 54.464C50.2621 54.464 50.8061 54.2453 51.1687 53.808C51.5314 53.3707 51.7127 52.7893 51.7127 52.064C51.7127 51.3813 51.5261 50.848 51.1528 50.464C50.7794 50.0693 50.2461 49.872 49.5528 49.872C49.0621 49.872 48.6301 49.9787 48.2567 50.192C47.8941 50.4053 47.6274 50.688 47.4567 51.04H45.6807V44.528H52.9447V46.144ZM57.5211 44.544C58.2358 44.544 58.8171 44.768 59.2651 45.216C59.7131 45.6533 59.9371 46.2507 59.9371 47.008C59.9371 47.7653 59.7131 48.3627 59.2651 48.8C58.8171 49.2373 58.2358 49.456 57.5211 49.456C56.8065 49.456 56.2198 49.2373 55.7611 48.8C55.3131 48.3627 55.0891 47.7653 55.0891 47.008C55.0891 46.2507 55.3131 45.6533 55.7611 45.216C56.2198 44.768 56.8065 44.544 57.5211 44.544ZM64.2891 44.688L57.9051 56H56.1131L62.5131 44.688H64.2891ZM56.3371 47.008C56.3371 47.4133 56.4438 47.7387 56.6571 47.984C56.8705 48.2187 57.1531 48.336 57.5051 48.336C57.8571 48.336 58.1398 48.2133 58.3531 47.968C58.5771 47.7227 58.6891 47.4027 58.6891 47.008C58.6891 46.6027 58.5771 46.2773 58.3531 46.032C58.1398 45.7867 57.8571 45.664 57.5051 45.664C57.1531 45.664 56.8705 45.7867 56.6571 46.032C56.4438 46.2773 56.3371 46.6027 56.3371 47.008ZM62.8971 51.232C63.6118 51.232 64.1931 51.4507 64.6411 51.888C65.0998 52.3253 65.3291 52.9227 65.3291 53.68C65.3291 54.4373 65.0998 55.04 64.6411 55.488C64.1931 55.9253 63.6118 56.144 62.8971 56.144C62.1931 56.144 61.6118 55.9253 61.1531 55.488C60.7051 55.04 60.4811 54.4373 60.4811 53.68C60.4811 52.9333 60.7051 52.3413 61.1531 51.904C61.6118 51.456 62.1931 51.232 62.8971 51.232ZM61.7291 53.68C61.7291 54.0853 61.8358 54.4107 62.0491 54.656C62.2625 54.9013 62.5451 55.024 62.8971 55.024C63.2491 55.024 63.5318 54.9013 63.7451 54.656C63.9691 54.4107 64.0811 54.0853 64.0811 53.68C64.0811 53.2853 63.9691 52.9653 63.7451 52.72C63.5318 52.4747 63.2491 52.352 62.8971 52.352C62.5451 52.352 62.2625 52.4747 62.0491 52.72C61.8358 52.9653 61.7291 53.2853 61.7291 53.68Z" fill="black"/>
</g>
</svg>
