<svg width="24" height="25" viewBox="0 0 24 25" fill="none" xmlns="http://www.w3.org/2000/svg">
<path d="M19.572 7.69116H4.42195C4.2374 7.69203 4.05949 7.76007 3.92146 7.88257C3.78343 8.00507 3.69473 8.17365 3.67195 8.35679L2.3407 20.3568C2.32886 20.4613 2.33915 20.5672 2.37091 20.6675C2.40267 20.7679 2.45518 20.8604 2.52503 20.9391C2.59488 21.0178 2.68051 21.0809 2.77635 21.1243C2.8722 21.1677 2.9761 21.1905 3.08133 21.1912H20.9126C21.0178 21.1905 21.1217 21.1677 21.2175 21.1243C21.3134 21.0809 21.399 21.0178 21.4689 20.9391C21.5387 20.8604 21.5912 20.7679 21.623 20.6675C21.6547 20.5672 21.665 20.4613 21.6532 20.3568L20.322 8.35679C20.2992 8.17365 20.2105 8.00507 20.0724 7.88257C19.9344 7.76007 19.7565 7.69203 19.572 7.69116V7.69116Z" stroke="#8E8B8A" stroke-width="2" stroke-linecap="round" stroke-linejoin="round"/>
<path d="M8.25 10.6912V7.69116C8.25 6.6966 8.64509 5.74277 9.34835 5.03951C10.0516 4.33625 11.0054 3.94116 12 3.94116C12.9946 3.94116 13.9484 4.33625 14.6517 5.03951C15.3549 5.74277 15.75 6.6966 15.75 7.69116V10.6912" stroke="#8E8B8A" stroke-width="2" stroke-linecap="round" stroke-linejoin="round"/>
</svg>
