<svg width="40" height="42" viewBox="0 0 40 42" fill="none" xmlns="http://www.w3.org/2000/svg">
<path fill-rule="evenodd" clip-rule="evenodd" d="M20.5437 0.337978C20.194 0.207653 19.806 0.207653 19.4563 0.337978L1.45634 7.04631C0.860824 7.26825 0.477386 7.82735 0.501035 8.43927L0.846577 17.3802C1.26433 28.1894 8.53169 37.6565 19.1752 41.2565L19.5008 41.3666C19.8238 41.4759 20.1762 41.4759 20.4992 41.3666L20.8248 41.2565C31.4683 37.6565 38.7357 28.1894 39.1534 17.3802L39.499 8.43927C39.5226 7.82735 39.1392 7.26825 38.5437 7.04631L20.5437 0.337978Z" fill="#E04800"/>
<path fill-rule="evenodd" clip-rule="evenodd" d="M33.0607 12.1613C33.6464 12.7226 33.6464 13.6328 33.0607 14.1942L17.0607 29.5275C16.4749 30.0889 15.5251 30.0889 14.9393 29.5275L7.93934 22.8192C7.35355 22.2578 7.35355 21.3476 7.93934 20.7863C8.52513 20.2249 9.47487 20.2249 10.0607 20.7863L16 26.4781L30.9393 12.1613C31.5251 11.5999 32.4749 11.5999 33.0607 12.1613Z" fill="#ECECEC" fill-opacity="0.88"/>
</svg>
