<svg width="44" height="42" viewBox="0 0 44 42" fill="none" xmlns="http://www.w3.org/2000/svg">
<path fill-rule="evenodd" clip-rule="evenodd" d="M43.0607 8.32826C43.6464 8.88964 43.6464 9.79981 43.0607 10.3612L31.0607 21.8612C30.4749 22.4226 29.5251 22.4226 28.9393 21.8612L26 19.0443L17.0607 27.6112C16.4749 28.1726 15.5251 28.1726 14.9393 27.6112L10 22.8777L3.06066 29.5279C2.47487 30.0892 1.52513 30.0892 0.93934 29.5279C0.353553 28.9665 0.353553 28.0563 0.93934 27.4949L8.93934 19.8283C9.52513 19.2669 10.4749 19.2669 11.0607 19.8283L16 24.5618L24.9393 15.9949C25.5251 15.4335 26.4749 15.4335 27.0607 15.9949L30 18.8118L40.9393 8.32826C41.5251 7.76688 42.4749 7.76688 43.0607 8.32826Z" fill="#E04800"/>
<path fill-rule="evenodd" clip-rule="evenodd" d="M2 0.240234C2.82843 0.240234 3.5 0.883825 3.5 1.67773V38.5736H42C42.8284 38.5736 43.5 39.2172 43.5 40.0111C43.5 40.805 42.8284 41.4486 42 41.4486H2C1.17157 41.4486 0.5 40.805 0.5 40.0111V1.67773C0.5 0.883825 1.17157 0.240234 2 0.240234Z" fill="#ECECEC" fill-opacity="0.88"/>
</svg>
