<svg width="24" height="25" viewBox="0 0 24 25" fill="none" xmlns="http://www.w3.org/2000/svg">
<path d="M12 21.9414C16.9706 21.9414 21 17.912 21 12.9414C21 7.97084 16.9706 3.94141 12 3.94141C7.02944 3.94141 3 7.97084 3 12.9414C3 17.912 7.02944 21.9414 12 21.9414Z" stroke="#8E8B8A" stroke-width="2" stroke-linecap="round" stroke-linejoin="round"/>
<path d="M12 15.9414C14.0711 15.9414 15.75 14.2625 15.75 12.1914C15.75 10.1203 14.0711 8.44141 12 8.44141C9.92893 8.44141 8.25 10.1203 8.25 12.1914C8.25 14.2625 9.92893 15.9414 12 15.9414Z" stroke="#8E8B8A" stroke-width="2" stroke-linecap="round" stroke-linejoin="round"/>
<path d="M5.98438 19.6357C6.54867 18.5243 7.40971 17.5907 8.47207 16.9387C9.53443 16.2866 10.7566 15.9414 12.0031 15.9414C13.2496 15.9414 14.4718 16.2866 15.5342 16.9387C16.5965 17.5907 17.4576 18.5243 18.0219 19.6357" stroke="#8E8B8A" stroke-width="2" stroke-linecap="round" stroke-linejoin="round"/>
</svg>
