<svg width="20" height="18" viewBox="0 0 20 18" fill="none" xmlns="http://www.w3.org/2000/svg">
<path d="M1.75 2.94141V14.9414C1.75 15.3392 1.90804 15.7208 2.18934 16.0021C2.47064 16.2834 2.85218 16.4414 3.25 16.4414H18.25C18.4489 16.4414 18.6397 16.3624 18.7803 16.2217C18.921 16.0811 19 15.8903 19 15.6914V5.19141C19 4.99249 18.921 4.80173 18.7803 4.66108C18.6397 4.52042 18.4489 4.44141 18.25 4.44141H3.25C2.85218 4.44141 2.47064 4.28337 2.18934 4.00207C1.90804 3.72076 1.75 3.33923 1.75 2.94141ZM1.75 2.94141C1.75 2.54358 1.90804 2.16205 2.18934 1.88075C2.47064 1.59944 2.85218 1.44141 3.25 1.44141H16" stroke="#8E8B8A" stroke-width="2" stroke-linecap="round" stroke-linejoin="round"/>
</svg>
