<svg width="17" height="16" viewBox="0 0 17 16" fill="none" xmlns="http://www.w3.org/2000/svg">
<g clip-path="url(#clip0_2591_16981)">
<path d="M5 6.5C5 5.96957 5.21071 5.46086 5.58579 5.08579C5.96086 4.71071 6.46957 4.5 7 4.5L8 6.5L7.23 7.65438C7.53544 8.38421 8.11579 8.96456 8.84562 9.27L10 8.5L12 9.5C12 10.0304 11.7893 10.5391 11.4142 10.9142C11.0391 11.2893 10.5304 11.5 10 11.5C8.67392 11.5 7.40215 10.9732 6.46447 10.0355C5.52678 9.09785 5 7.82608 5 6.5Z" stroke="#FCEDE6" stroke-width="2" stroke-linecap="round" stroke-linejoin="round"/>
<path d="M5.49554 13.193C6.75588 13.9224 8.23847 14.1686 9.66691 13.8856C11.0953 13.6027 12.3721 12.8099 13.2592 11.6551C14.1463 10.5003 14.5831 9.06227 14.4883 7.60917C14.3934 6.15607 13.7734 4.78705 12.7437 3.75737C11.714 2.72768 10.345 2.10761 8.89187 2.01275C7.43876 1.91789 6.00076 2.35473 4.84595 3.24182C3.69114 4.1289 2.89835 5.40569 2.61539 6.83412C2.33243 8.26256 2.57862 9.74516 3.30804 11.0055L2.52617 13.3399C2.49679 13.428 2.49253 13.5225 2.51386 13.6129C2.53519 13.7033 2.58127 13.7859 2.64694 13.8516C2.7126 13.9173 2.79526 13.9633 2.88565 13.9847C2.97603 14.006 3.07057 14.0017 3.15867 13.9724L5.49554 13.193Z" stroke="#FCEDE6" stroke-width="2" stroke-linecap="round" stroke-linejoin="round"/>
</g>
<defs>
<clipPath id="clip0_2591_16981">
<rect width="16" height="16" fill="white" transform="translate(0.5)"/>
</clipPath>
</defs>
</svg>
