<svg width="62" height="51" viewBox="0 0 62 51" fill="none" xmlns="http://www.w3.org/2000/svg">
<path d="M57.954 0.500005C60.2216 8.83334 61.3555 16.2738 61.3555 22.8214C61.3555 31.6012 59.1634 38.372 54.7793 43.1339C50.3951 48.0446 44.0457 50.5 35.7309 50.5L35.7309 40.0089C39.6615 40.0089 42.5339 38.8929 44.348 36.6607C46.011 34.5774 46.8425 31.3036 46.8425 26.8393L46.8425 22.1518L34.5971 22.1518L34.5971 0.500003L57.954 0.500005ZM23.7124 0.500002C25.8288 8.23809 26.8871 15.6786 26.8871 22.8214C26.8871 31.6012 24.7706 38.372 20.5376 43.1339C16.1535 48.0446 9.80405 50.5 1.4893 50.5L1.4893 40.0089C8.89699 40.0089 12.6008 35.619 12.6008 26.8393L12.6008 22.1518L0.355469 22.1518L0.355471 0.5L23.7124 0.500002Z" fill="#FFCC9F" fill-opacity="0.16"/>
</svg>
