<svg width="24" height="24" viewBox="0 0 24 24" fill="none" xmlns="http://www.w3.org/2000/svg">
<g clip-path="url(#clip0_3581_13120)">
<path d="M9 16.5H2.8125C2.66332 16.5 2.52024 16.4407 2.41475 16.3352C2.30926 16.2298 2.25 16.0867 2.25 15.9375V9.75C2.25 7.95979 2.96116 6.2429 4.22703 4.97703C5.4929 3.71116 7.20979 3 9 3C10.7902 3 12.5071 3.71116 13.773 4.97703C15.0388 6.2429 15.75 7.95979 15.75 9.75C15.75 11.5402 15.0388 13.2571 13.773 14.523C12.5071 15.7888 10.7902 16.5 9 16.5Z" stroke="#8E8B8A" stroke-width="2" stroke-linecap="round" stroke-linejoin="round"/>
<path d="M8.63281 16.5014C9.09819 17.8177 9.96029 18.9573 11.1003 19.7632C12.2404 20.5692 13.6023 21.0018 14.9984 21.0014H21.1859C21.3351 21.0014 21.4782 20.9421 21.5837 20.8367C21.6892 20.7312 21.7484 20.5881 21.7484 20.4389V14.2514C21.7484 12.5252 21.087 10.8646 19.9002 9.61099C18.7134 8.35743 17.0915 7.60618 15.3678 7.51172" stroke="#8E8B8A" stroke-width="2" stroke-linecap="round" stroke-linejoin="round"/>
</g>
<defs>
<clipPath id="clip0_3581_13120">
<rect width="24" height="24" fill="white"/>
</clipPath>
</defs>
</svg>
