<svg width="24" height="24" viewBox="0 0 24 24" fill="none" xmlns="http://www.w3.org/2000/svg">
<path d="M8.91507 13.8682L15.0865 8.26823M9.42938 8.7349H9.43967M14.5722 13.4016H14.5825M19.2008 20.4016V5.46823C19.2008 4.4373 18.2798 3.60156 17.1436 3.60156H6.85792C5.72179 3.60156 4.80078 4.4373 4.80078 5.46823V20.4016L8.40078 18.5349L12.0008 20.4016L15.6008 18.5349L19.2008 20.4016ZM9.94364 8.7349C9.94364 8.99263 9.71338 9.20156 9.42935 9.20156C9.14532 9.20156 8.91507 8.99263 8.91507 8.7349C8.91507 8.47716 9.14532 8.26823 9.42935 8.26823C9.71338 8.26823 9.94364 8.47716 9.94364 8.7349ZM15.0865 13.4016C15.0865 13.6593 14.8562 13.8682 14.5722 13.8682C14.2882 13.8682 14.0579 13.6593 14.0579 13.4016C14.0579 13.1439 14.2882 12.9349 14.5722 12.9349C14.8562 12.9349 15.0865 13.1439 15.0865 13.4016Z" stroke="#8E8B8A" stroke-width="1.58" stroke-linecap="round" stroke-linejoin="round"/>
</svg>
