<svg width="17" height="16" viewBox="0 0 17 16" fill="none" xmlns="http://www.w3.org/2000/svg">
<path fill-rule="evenodd" clip-rule="evenodd" d="M11.168 2V1.5C11.168 1.22386 11.3918 1 11.668 1C11.9441 1 12.168 1.22386 12.168 1.5V2H13.668C13.668 2 14.0822 2 14.3751 2.29289C14.3751 2.29289 14.668 2.58579 14.668 3V13C14.668 13 14.668 13.4142 14.3751 13.7071C14.3751 13.7071 14.0822 14 13.668 14H3.66797C3.66797 14 3.25375 14 2.96086 13.7071C2.96086 13.7071 2.66797 13.4142 2.66797 13V3C2.66797 3 2.66797 2.58579 2.96086 2.29289C2.96086 2.29289 3.25376 2 3.66797 2H5.16797V1.5C5.16797 1.22386 5.39183 1 5.66797 1C5.94411 1 6.16797 1.22386 6.16797 1.5V2H11.168ZM3.66797 6V13H13.668V6H3.66797ZM13.668 5H3.66797V3H5.16797V3.5C5.16797 3.77614 5.39183 4 5.66797 4C5.94411 4 6.16797 3.77614 6.16797 3.5V3H11.168V3.5C11.168 3.77614 11.3918 4 11.668 4C11.9441 4 12.168 3.77614 12.168 3.5V3H13.668V5Z" fill="black" fill-opacity="0.4"/>
</svg>
