<svg width="40" height="40" viewBox="0 0 40 40" fill="none" xmlns="http://www.w3.org/2000/svg">
<rect width="40" height="40" rx="20" fill="#FCEDE6"/>
<path d="M25.25 25.25H14.5438L11.9281 10.8688C11.8975 10.6965 11.8077 10.5404 11.6741 10.4274C11.5406 10.3144 11.3718 10.2517 11.1969 10.25H9.5" stroke="black" stroke-width="2" stroke-linecap="round" stroke-linejoin="round"/>
<path d="M15.5 29C16.5355 29 17.375 28.1605 17.375 27.125C17.375 26.0895 16.5355 25.25 15.5 25.25C14.4645 25.25 13.625 26.0895 13.625 27.125C13.625 28.1605 14.4645 29 15.5 29Z" stroke="black" stroke-width="2" stroke-linecap="round" stroke-linejoin="round"/>
<path d="M25.25 29C26.2855 29 27.125 28.1605 27.125 27.125C27.125 26.0895 26.2855 25.25 25.25 25.25C24.2145 25.25 23.375 26.0895 23.375 27.125C23.375 28.1605 24.2145 29 25.25 29Z" stroke="black" stroke-width="2" stroke-linecap="round" stroke-linejoin="round"/>
<path d="M13.8594 21.5H25.6344C25.985 21.5011 26.3247 21.3785 26.5939 21.1539C26.8631 20.9293 27.0445 20.617 27.1063 20.2719L28.25 14H12.5" stroke="black" stroke-width="2" stroke-linecap="round" stroke-linejoin="round"/>
<rect x="21" y="6" width="14" height="14" rx="7" fill="#E40000"/>
<path d="M23.62 11.26V9.94H26.16V17H24.68V11.26H23.62ZM27.1708 15.89C29.4308 14.3233 30.5608 13.0233 30.5608 11.99C30.5608 11.6767 30.4841 11.43 30.3308 11.25C30.1841 11.07 29.9508 10.98 29.6308 10.98C28.9708 10.98 28.6208 11.43 28.5808 12.33H27.2108C27.2508 11.4967 27.5041 10.8667 27.9708 10.44C28.4374 10.0067 29.0274 9.79 29.7408 9.79C30.4674 9.79 31.0241 9.98 31.4108 10.36C31.8041 10.7333 32.0008 11.2333 32.0008 11.86C32.0008 12.3533 31.8541 12.85 31.5608 13.35C31.2741 13.8433 30.9074 14.3 30.4608 14.72C30.0141 15.1333 29.5441 15.49 29.0508 15.79H32.1408V16.94H27.1708V15.89Z" fill="white"/>
</svg>
