<svg width="24" height="24" viewBox="0 0 24 24" fill="none" xmlns="http://www.w3.org/2000/svg">
<path d="M12 16.5C14.4853 16.5 16.5 14.4853 16.5 12C16.5 9.51472 14.4853 7.5 12 7.5C9.51472 7.5 7.5 9.51472 7.5 12C7.5 14.4853 9.51472 16.5 12 16.5Z" stroke="#8E8B8A" stroke-width="2" stroke-linecap="round" stroke-linejoin="round"/>
<path d="M17.2203 6.10156C17.4578 6.32031 17.6828 6.54531 17.8953 6.77656L20.4547 7.14219C20.8717 7.86641 21.1931 8.64161 21.4109 9.44844L19.8547 11.5203C19.8547 11.5203 19.8828 12.1578 19.8547 12.4766L21.4109 14.5484C21.1941 15.3556 20.8727 16.1309 20.4547 16.8547L17.8953 17.2203C17.8953 17.2203 17.4547 17.6797 17.2203 17.8953L16.8547 20.4547C16.1305 20.8717 15.3553 21.1931 14.5484 21.4109L12.4766 19.8547C12.1584 19.8828 11.8384 19.8828 11.5203 19.8547L9.44844 21.4109C8.64127 21.1941 7.86594 20.8727 7.14219 20.4547L6.77656 17.8953C6.54531 17.6766 6.32031 17.4516 6.10156 17.2203L3.54219 16.8547C3.12517 16.1305 2.80375 15.3553 2.58594 14.5484L4.14219 12.4766C4.14219 12.4766 4.11406 11.8391 4.14219 11.5203L2.58594 9.44844C2.80274 8.64127 3.12421 7.86594 3.54219 7.14219L6.10156 6.77656C6.32031 6.54531 6.54531 6.32031 6.77656 6.10156L7.14219 3.54219C7.86641 3.12517 8.64161 2.80375 9.44844 2.58594L11.5203 4.14219C11.8384 4.11406 12.1584 4.11406 12.4766 4.14219L14.5484 2.58594C15.3556 2.80274 16.1309 3.12421 16.8547 3.54219L17.2203 6.10156Z" stroke="#8E8B8A" stroke-width="2" stroke-linecap="round" stroke-linejoin="round"/>
</svg>
